<svg xmlns="http://www.w3.org/2000/svg" viewBox="0 0 80 80"><path fill="var(--color-lighten-primary)" d="M55.9 43c.1-.1.1-.2.2-.3 0-.1.1-.1.1-.2v-.1c0-.1.1-.2.1-.3 0-.1 0-.2.1-.2v-1.4c0-.1 0-.2-.1-.2 0-.1 0-.2-.1-.3v-.1c0-.1-.1-.1-.1-.2s-.1-.2-.1-.2v-.1c0-.1-.1-.1-.1-.2s-.1-.1-.1-.2l-8.3-9.6c-1.1-1.2-2.9-1.3-4-.1s-1.2 3.1-.1 4.4l3.8 4.3H18.7c-1.6 0-2.8 1.4-2.8 3.1 0 1.7 1.3 3.1 2.8 3.1H47l-3.8 4.3c-1.1 1.2-1 3.2.1 4.4 1.1 1.2 2.9 1.1 4-.1l8.3-9.6c0-.1.1-.1.1-.2.1.1.1.1.2 0z"/><path fill="#fff" stroke="#fff" stroke-width="3" d="M39.7 2.5c20.8 0 37.7 16.9 37.7 37.7C77.4 61.1 60.5 78 39.7 78 18.9 78 2 61.1 2 40.3 2 19.5 18.9 2.5 39.7 2.5m0-2C17.8.5 0 18.3 0 40.3 0 62.2 17.8 80 39.7 80c21.9 0 39.7-17.8 39.7-39.7C79.4 18.3 61.6.5 39.7.5z"/></svg>