<svg xmlns="http://www.w3.org/2000/svg" viewBox="0 0 80 80"><path d="M70 43.7v-7.5c0-1.2-.9-2.1-2.1-2.1h-4.8c-.9 0-1.7-.6-2-1.4-.3-.9-.7-1.8-1.1-2.6-.4-.8-.2-1.8.4-2.4l3.4-3.4c.8-.8.8-2.1 0-3L58.5 16c-.8-.8-2.1-.8-3 0l-3.4 3.4c-.6.6-1.6.8-2.4.4-.8-.4-1.7-.8-2.6-1.1-.8-.3-1.4-1.1-1.4-2v-4.8c0-1.2-.9-2.1-2.1-2.1h-7.5c-1.2 0-2.1.9-2.1 2.1v4.8c0 .9-.6 1.7-1.4 2-.9.3-1.8.7-2.6 1.1-.8.4-1.8.2-2.4-.4L24.2 16c-.8-.8-2.1-.8-3 0l-5.3 5.3c-.8.8-.8 2.1 0 3l3.4 3.4c.6.6.8 1.6.4 2.4-.4.8-.8 1.7-1.1 2.6-.3.8-1.1 1.4-2 1.4h-4.8c-1.2 0-2.1.9-2.1 2.1v7.5c0 1.2.9 2.1 2.1 2.1h4.8c.9 0 1.7.6 2 1.4.5 1.4 1.1 2.7 1.8 3.9l-4.5 4.5c-.8.8-.8 2.1 0 3l5.3 5.3c.8.8 2.1.8 3 0l3.4-3.4c.6-.6 1.6-.8 2.4-.4.8.4 1.7.8 2.6 1.1.8.3 1.4 1.1 1.4 2V68c0 1.2.9 2.1 2.1 2.1h7.5c1.2 0 2.1-.9 2.1-2.1v-4.8c0-.9.6-1.7 1.4-2 .9-.3 1.8-.7 2.6-1.1.8-.4 1.8-.2 2.4.4l3.4 3.4c.8.8 2.1.8 3 0l5.3-5.3c.8-.8.8-2.1 0-3l-3.4-3.4c-.6-.6-.8-1.6-.4-2.4.4-.8.8-1.7 1.1-2.6.3-.8 1.1-1.4 2-1.4h4.8c1.2 0 2.1-.9 2.1-2.1zM41.9 51c-7.6 1.2-14.1-5.2-12.9-12.9.8-4.6 4.5-8.3 9.1-9.1 7.6-1.2 14.1 5.2 12.9 12.9-.8 4.6-4.5 8.3-9.1 9.1z"/></svg>