<svg xmlns="http://www.w3.org/2000/svg" viewBox="0 0 80 80"><path d="M41.3 70H20.6c-1.4 0-2.7-.6-3.7-1.5-.9-.9-1.5-2.2-1.5-3.7V15.2c0-1.4.6-2.7 1.5-3.7.9-.9 2.2-1.5 3.7-1.5h20.7c1.7 0 3-1.3 3-3s-1.3-3-3-3H20.6c-3.1 0-5.9 1.3-7.9 3.3-2 2-3.3 4.8-3.3 7.9v49.6c0 3.1 1.3 5.9 3.3 7.9 2 2 4.8 3.3 7.9 3.3h20.7c1.7 0 3-1.3 3-3s-1.4-3-3-3z"/><path d="M76.1 39.2c0-.2 0-.4-.1-.6 0-.1-.1-.2-.1-.3 0-.1-.1-.2-.1-.3 0-.1-.1-.2-.1-.3 0-.1-.1-.2-.1-.2-.1-.2-.2-.3-.4-.5L63.9 25.8c-1.2-1.2-3.1-1.2-4.2 0s-1.2 3.1 0 4.2l6.2 6.2H32.7c-1.7 0-3 1.3-3 3s1.3 3 3 3h33.9l-7 7c-1.2 1.2-1.2 3.1 0 4.2 1.2 1.2 3.1 1.2 4.2 0l11.3-11.3c.7-.7 1-1.6.8-2.5.2-.1.2-.2.2-.4z"/></svg>