<svg xmlns="http://www.w3.org/2000/svg" viewBox="0 0 80 80">
  <path d="M43 43.1l-4.4 4.4-5.9-5.9 4.4-4.4c1.2-1.2 1.2-3.1 0-4.2s-3.1-1.2-4.2 0l-4.4 4.4-2.6-2.6c-.7-.7-1.8-.6-2.4.1-4.1 5.2-4.3 12.5-.4 17.9L7.9 67.9c-1.2 1.2-1.2 3.1 0 4.2 1.2 1.2 3.1 1.2 4.2 0l15.2-15.2c5.3 3.2 12.1 2.9 17-1 .7-.6.8-1.7.1-2.4l-1.8-1.8 4.4-4.4c1.2-1.2 1.2-3.1 0-4.2s-2.9-1.2-4 0zM72.1 7.9c-1.2-1.2-3.1-1.2-4.2 0L54.8 21c-5.4-3.7-12.6-3.6-17.8.5-.7.6-.8 1.7-.1 2.4l18.7 18.7c.7.7 1.8.6 2.4-.1 3.9-5 4.2-11.9.9-17.2l13.2-13.2c1.2-1.1 1.2-3 0-4.2z"/>
</svg>
