<svg xmlns="http://www.w3.org/2000/svg" viewBox="0 0 80 80"><path d="M63.1 39.2c-1.7-3.7-4.2-6.7-7.1-9 1-2.3 1.6-4.8 1.6-7.4 0-4.9-2-9.3-5.2-12.5C49.3 7 44.9 5 40 5s-9.3 2-12.5 5.2c-3.2 3.2-5.2 7.6-5.2 12.5 0 2.6.6 5.2 1.6 7.4-2.9 2.3-5.3 5.3-7 8.9-2.2 4.5-3.3 10-3.3 16.3 0 4.1.7 7.5 2.2 10.4 1.1 2.1 2.6 3.9 4.4 5.2 2.7 2 5.8 3.1 9.2 3.7 3.4.6 7 .8 10.7.8 3.3 0 6.5-.1 9.6-.6 2.3-.4 4.4-.9 6.5-1.8 1.5-.6 3-1.5 4.2-2.5 1.9-1.6 3.5-3.7 4.5-6.2s1.5-5.5 1.5-8.9c-.1-6.3-1.2-11.8-3.3-16.2zM31.7 14.4c2.1-2.1 5-3.4 8.3-3.4 3.2 0 6.1 1.3 8.3 3.4 2.1 2.1 3.4 5 3.4 8.3 0 3.2-1.3 6.1-3.4 8.3-2.1 2.1-5 3.4-8.3 3.4-3.2 0-6.1-1.3-8.3-3.4-2.1-2.1-3.4-5-3.4-8.3 0-3.2 1.3-6.1 3.4-8.3zm27.1 48.5c-.7 1.3-1.6 2.3-2.6 3.2-1.6 1.2-3.9 2.1-6.6 2.6-2.8.5-6 .7-9.6.7-3.1 0-6.1-.1-8.6-.5-1.9-.3-3.6-.7-5.1-1.3-1.1-.5-2-1-2.8-1.6-1.2-1-2.1-2.1-2.8-3.8-.7-1.7-1.1-3.9-1.1-6.7 0-5.6 1-10.2 2.7-13.7 1.3-2.7 3-4.9 5-6.5l.1.1c3.2 3.2 7.6 5.2 12.5 5.2s9.3-2 12.5-5.2l.1-.1c2 1.7 3.7 3.9 5 6.6 1.7 3.5 2.7 8.1 2.7 13.6.1 3.2-.4 5.6-1.4 7.4z"/></svg>