<svg xmlns="http://www.w3.org/2000/svg" width="37.352" height="45.571" viewBox="0 0 9.883 12.057"><defs><clipPath id="e"><path d="M206.522 42.667h28.038v35.28h-28.038z"/></clipPath><clipPath id="d"><path d="M168.984 42.667h28.039v35.28h-28.039z"/></clipPath><clipPath id="c"><path d="M131.447 42.667h28.038v35.28h-28.038z"/></clipPath><clipPath id="b"><path d="M93.909 42.667h28.038v35.28H93.909z"/></clipPath><clipPath id="a"><path d="M56.371 42.667H84.41v35.28H56.371z"/></clipPath></defs><path d="M-3.36 9.883h-9.883V0h9.883z" fill="#8cd024"/><g clip-path="url(#a)" transform="matrix(.35278 0 0 -.35278 -33.129 27.414)"><path d="M68.474 65.944h.952c1.513 0 1.793.784 1.793 2.157 0 1.709-.336 2.269-1.176 2.269-.701 0-1.093-.588-1.093-1.961v-.784h-4.118c0 4.174 1.317 6.5 5.519 6.5 3.222 0 5.239-1.849 5.239-5.66 0-2.521-.785-3.586-2.017-4.062 1.457-.812 2.297-1.681 2.297-4.678 0-3.979-1.485-6.388-5.743-6.388-4.96 0-5.603 3.222-5.575 7.48h4.314v-1.849c0-1.121.448-1.597 1.093-1.597.84 0 1.372.588 1.372 2.466 0 2.072-.448 2.801-2.017 2.801h-.84z" fill="#fff"/><path d="M83.825 50.255H56.932v26.893h26.893zm-27.454-6.724h28.014v34.178H56.371" fill="#231f20"/><path d="M83.264 74.976h-.26v1.27h-.008l-.447-1.27h-.212l-.424 1.27h-.008v-1.27h-.26v1.612h.413l.402-1.199h.007l.392 1.2h.405zm-1.806 1.612v-.209h-.443v-1.403h-.26v1.403h-.443v.21z" fill="#231f20"/><path d="M58.15 45.632h.475l.437 2.125h.01l.456-2.125h.446l.616 2.601h-.426l-.403-2.127h-.01l-.432 2.127h-.48l-.442-2.127h-.01l-.417 2.127h-.427zM61.295 45.632h.475l.437 2.125h.01l.456-2.125h.446l.616 2.601h-.426l-.403-2.127h-.01l-.432 2.127h-.48l-.44-2.127h-.012l-.417 2.127h-.427zM64.44 45.632h.475l.437 2.125h.01l.456-2.125h.446l.616 2.601h-.426l-.403-2.127h-.01l-.432 2.127h-.48l-.44-2.127h-.01l-.418 2.127h-.428zM67.111 45.632h.446v.514h-.446z" fill="#fff"/><path d="M68.183 44.778h.407v1.15h.01a.59.59 0 0 1 .544-.364c.674 0 .849.825.849 1.417 0 .77-.233 1.32-.85 1.32-.281 0-.51-.195-.562-.39h-.01v.322h-.388zm.383 2.154c0 .593.073 1.019.524 1.019.379 0 .476-.398.476-.97 0-.67-.097-1.068-.476-1.068-.436 0-.524.515-.524 1.019M72.138 46.884v.165c0 .558-.074 1.252-.869 1.252-.8 0-.926-.752-.926-1.403 0-.893.266-1.334.902-1.334.709 0 .873.646.873.922h-.406c0-.194-.055-.602-.443-.602-.5 0-.5.602-.5 1zm-1.354.32v.097c0 .155.049.68.476.68.358 0 .451-.345.451-.636v-.14zM74.297 48.233h-.387v-.33h-.011c-.053.203-.281.398-.563.398-.66 0-.848-.665-.848-1.37 0-.344.048-1.3.805-1.3.257 0 .5.132.587.35h.01v-.34c0-.18.02-.582-.505-.582-.213 0-.398.092-.417.33h-.408c.068-.65.694-.65.853-.65.525 0 .884.28.884 1.058zm-.907-.282c.436 0 .524-.514.524-1.02 0-.532-.088-.95-.53-.95-.406 0-.47.529-.47.95 0 .622.097 1.02.476 1.02M74.856 48.63h.407v.466h-.407zm0-2.998h.407v2.601h-.407z" fill="#fff" fill-rule="evenodd"/><path d="M75.913 45.632h.446v.514h-.446z" fill="#fff"/><path d="M77.01 48.63h.408v.466h-.408zm0-2.998h.408v2.601h-.408z" fill="#fff" fill-rule="evenodd"/><path d="M77.976 45.632h.407v1.795c0 .378.297.523.515.523.368 0 .383-.324.383-.523v-1.795h.408v1.843c0 .306 0 .825-.685.825-.252 0-.524-.136-.63-.374h-.011v.307h-.387zM80.344 45.632h.409v2.28h.445v.321h-.445v.305c0 .18.086.247.26.247h.19v.35h-.295c-.394 0-.564-.205-.564-.597v-.305h-.378v-.322h.378z" fill="#fff"/><path d="M82.28 45.883c-.418 0-.5.486-.5 1.048 0 .565.088 1.05.5 1.05.436 0 .52-.486.52-1.05 0-.561-.089-1.047-.52-1.047m-.928 1.047c0-.731.186-1.367.937-1.367.747 0 .936.635.936 1.367 0 .735-.184 1.37-.936 1.37-.746 0-.937-.636-.937-1.37" fill="#fff" fill-rule="evenodd"/></g><path d="M9.883 9.883H0V0h9.883z" fill="#8cd024"/><g clip-path="url(#b)" transform="matrix(.35278 0 0 -.35278 -33.129 27.414)"><path d="M102.257 73.788h11.038c-1.233-6.332-3.194-12.943-3.306-20.115h-4.538c.28 5.491 1.485 10.926 2.801 16.25h-5.995z" fill="#fff"/><path d="M121.362 50.255H94.469v26.893h26.893zm-27.453-6.724h28.014v34.178H93.909" fill="#231f20"/><path d="M120.802 74.976h-.26v1.27h-.008l-.447-1.27h-.212l-.424 1.27h-.008v-1.27h-.261v1.612h.414l.402-1.199h.007l.392 1.2h.405zm-1.806 1.612v-.209h-.443v-1.403h-.26v1.403h-.443v.21z" fill="#231f20"/><path d="M95.688 45.632h.475l.437 2.125h.01l.456-2.125h.446l.616 2.601h-.426l-.403-2.127h-.01l-.432 2.127h-.48l-.442-2.127h-.01l-.417 2.127h-.427zM98.833 45.632h.475l.437 2.125h.01l.456-2.125h.446l.616 2.601h-.426l-.403-2.127h-.01l-.432 2.127h-.48l-.44-2.127h-.012l-.417 2.127h-.427zM101.978 45.632h.476l.436 2.125h.01l.456-2.125h.446l.616 2.601h-.426l-.403-2.127h-.009l-.433 2.127h-.48l-.441-2.127h-.01l-.417 2.127h-.428zM104.648 45.632h.446v.514h-.446z" fill="#fff"/><path d="M105.72 44.778h.408v1.15h.01a.59.59 0 0 1 .543-.364c.675 0 .85.825.85 1.417 0 .77-.234 1.32-.85 1.32-.281 0-.51-.195-.562-.39h-.01v.322h-.389zm.384 2.154c0 .593.072 1.019.523 1.019.38 0 .477-.398.477-.97 0-.67-.098-1.068-.477-1.068-.435 0-.523.515-.523 1.019M109.675 46.884v.165c0 .558-.073 1.252-.868 1.252-.8 0-.927-.752-.927-1.403 0-.893.267-1.334.903-1.334.708 0 .872.646.872.922h-.406c0-.194-.054-.602-.442-.602-.5 0-.5.602-.5 1zm-1.353.32v.097c0 .155.048.68.475.68.36 0 .452-.345.452-.636v-.14zM111.834 48.233h-.387v-.33h-.01c-.054.203-.282.398-.564.398-.659 0-.848-.665-.848-1.37 0-.344.048-1.3.805-1.3.257 0 .5.132.587.35h.011v-.34c0-.18.02-.582-.506-.582-.213 0-.398.092-.417.33h-.408c.068-.65.694-.65.853-.65.525 0 .884.28.884 1.058zm-.907-.282c.436 0 .524-.514.524-1.02 0-.532-.088-.95-.529-.95-.407 0-.47.529-.47.95 0 .622.096 1.02.475 1.02M112.394 48.63h.407v.466h-.407zm0-2.998h.407v2.601h-.407z" fill="#fff" fill-rule="evenodd"/><path d="M113.451 45.632h.446v.514h-.446z" fill="#fff"/><path d="M114.548 48.63h.408v.466h-.408zm0-2.998h.408v2.601h-.408z" fill="#fff" fill-rule="evenodd"/><path d="M115.513 45.632h.407v1.795c0 .378.297.523.515.523.368 0 .383-.324.383-.523v-1.795h.408v1.843c0 .306 0 .825-.685.825-.252 0-.524-.136-.63-.374h-.01v.307h-.388zM117.881 45.632h.41v2.28h.444v.321h-.445v.305c0 .18.086.247.261.247h.19v.35h-.296c-.394 0-.564-.205-.564-.597v-.305h-.378v-.322h.378z" fill="#fff"/><path d="M119.817 45.883c-.417 0-.499.486-.499 1.048 0 .565.088 1.05.5 1.05.436 0 .52-.486.52-1.05 0-.561-.089-1.047-.52-1.047m-.928 1.047c0-.731.186-1.367.937-1.367.747 0 .936.635.936 1.367 0 .735-.184 1.37-.936 1.37-.746 0-.937-.636-.937-1.37" fill="#fff" fill-rule="evenodd"/></g><path d="M23.125 9.883h-9.883V0h9.883z" fill="#f7960f"/><g clip-path="url(#c)" transform="matrix(.35278 0 0 -.35278 -33.129 27.414)"><path d="M141.308 53.673h-4.37v15.184h-2.858v2.578c1.961-.028 3.25.784 3.95 2.69h3.278zM156.211 57.82v-4.147H145.51v4.342c4.875 6.64 6.444 7.761 6.444 10.31 0 1.037-.393 1.653-1.149 1.653-1.037 0-1.26-.812-1.26-1.736v-1.206h-4.09v1.346c0 3.165 1.54 5.742 5.35 5.742 3.642 0 5.631-2.296 5.631-5.966 0-4.372-3.698-7.23-6.219-10.339z" fill="#fff"/><path d="M158.9 50.255h-26.893v26.893H158.9zm-27.453-6.724h28.013v34.178h-28.013" fill="#231f20"/><path d="M158.34 74.976h-.26v1.27h-.008l-.447-1.27h-.212l-.424 1.27h-.008v-1.27h-.261v1.612h.414l.402-1.199h.007l.392 1.2h.405zm-1.806 1.612v-.209h-.443v-1.403h-.26v1.403h-.443v.21z" fill="#231f20"/><path d="M133.226 45.632h.475l.437 2.125h.01l.456-2.125h.446l.616 2.601h-.426l-.403-2.127h-.01l-.432 2.127h-.48l-.442-2.127h-.01l-.417 2.127h-.427zM136.37 45.632h.476l.437 2.125h.01l.456-2.125h.446l.616 2.601h-.426l-.403-2.127h-.01l-.432 2.127h-.48l-.441-2.127h-.011l-.417 2.127h-.427zM139.516 45.632h.475l.437 2.125h.01l.456-2.125h.446l.616 2.601h-.426l-.403-2.127h-.01l-.432 2.127h-.48l-.441-2.127h-.01l-.417 2.127h-.428zM142.186 45.632h.446v.514h-.446z" fill="#fff"/><path d="M143.258 44.778h.407v1.15h.01a.59.59 0 0 1 .544-.364c.674 0 .85.825.85 1.417 0 .77-.234 1.32-.85 1.32-.282 0-.51-.195-.563-.39h-.01v.322h-.388zm.383 2.154c0 .593.073 1.019.524 1.019.38 0 .476-.398.476-.97 0-.67-.097-1.068-.476-1.068-.436 0-.524.515-.524 1.019M147.213 46.884v.165c0 .558-.073 1.252-.868 1.252-.801 0-.927-.752-.927-1.403 0-.893.267-1.334.903-1.334.708 0 .872.646.872.922h-.406c0-.194-.054-.602-.442-.602-.5 0-.5.602-.5 1zm-1.353.32v.097c0 .155.048.68.475.68.359 0 .452-.345.452-.636v-.14zM149.372 48.233h-.387v-.33h-.01c-.054.203-.282.398-.564.398-.659 0-.848-.665-.848-1.37 0-.344.048-1.3.805-1.3.257 0 .5.132.587.35h.011v-.34c0-.18.02-.582-.506-.582-.213 0-.398.092-.417.33h-.408c.068-.65.694-.65.853-.65.525 0 .884.28.884 1.058zm-.907-.282c.436 0 .524-.514.524-1.02 0-.532-.088-.95-.529-.95-.407 0-.47.529-.47.95 0 .622.096 1.02.475 1.02M149.932 48.63h.407v.466h-.407zm0-2.998h.407v2.601h-.407z" fill="#fff" fill-rule="evenodd"/><path d="M150.988 45.632h.446v.514h-.446z" fill="#fff"/><path d="M152.085 48.63h.408v.466h-.408zm0-2.998h.408v2.601h-.408z" fill="#fff" fill-rule="evenodd"/><path d="M153.051 45.632h.407v1.795c0 .378.297.523.515.523.368 0 .383-.324.383-.523v-1.795h.408v1.843c0 .306 0 .825-.685.825-.252 0-.524-.136-.63-.374h-.01v.307h-.388zM155.42 45.632h.408v2.28h.445v.321h-.445v.305c0 .18.086.247.261.247h.19v.35h-.296c-.394 0-.564-.205-.564-.597v-.305h-.378v-.322h.378z" fill="#fff"/><path d="M157.355 45.883c-.417 0-.5.486-.5 1.048 0 .565.089 1.05.5 1.05.437 0 .52-.486.52-1.05 0-.561-.088-1.047-.52-1.047m-.927 1.047c0-.731.186-1.367.937-1.367.747 0 .936.635.936 1.367 0 .735-.184 1.37-.936 1.37-.746 0-.937-.636-.937-1.37" fill="#fff" fill-rule="evenodd"/></g><path d="M36.368 9.883h-9.883V0h9.883z" fill="#f7960f"/><g clip-path="url(#d)" transform="matrix(.35278 0 0 -.35278 -33.129 27.414)"><path d="M178.846 53.673h-4.37v15.184h-2.858v2.578c1.961-.028 3.25.784 3.95 2.69h3.278zM188.678 62.582c-.868 0-1.26-.869-1.26-2.718 0-1.877.392-2.717 1.26-2.717.925 0 1.317.84 1.317 2.717 0 1.85-.392 2.718-1.317 2.718m-1.26 2.69c.84.784 1.456 1.344 2.857 1.344 2.606 0 3.978-2.213 3.978-6.33 0-3.868-1.009-6.95-5.63-6.95-3.25 0-4.903 1.654-5.492 4.791-.252 1.373-.28 3.054-.28 5.351.028 2.802.056 4.483.308 5.855.59 3.138 2.242 4.791 5.491 4.791 2.942 0 5.323-1.82 5.323-4.903v-1.036h-4.09v.476c0 1.401-.533 1.765-1.233 1.765-.84-.112-1.205-.896-1.233-2.017z" fill="#fff"/><path d="M196.438 50.255h-26.893v26.893h26.893zm-27.454-6.724h28.014v34.178h-28.014" fill="#231f20"/><path d="M195.878 74.976h-.26v1.27h-.008l-.447-1.27h-.212l-.424 1.27h-.008v-1.27h-.261v1.612h.414l.402-1.199h.007l.392 1.2h.405zm-1.806 1.612v-.209h-.443v-1.403h-.26v1.403h-.443v.21z" fill="#231f20"/><path d="M170.763 45.632h.475l.437 2.125h.01l.456-2.125h.446l.616 2.601h-.426l-.403-2.127h-.01l-.432 2.127h-.48l-.442-2.127H171l-.417 2.127h-.427zM173.909 45.632h.475l.437 2.125h.01l.456-2.125h.446l.616 2.601h-.426l-.403-2.127h-.01l-.432 2.127h-.48l-.441-2.127h-.011l-.417 2.127h-.427zM177.054 45.632h.475l.437 2.125h.01l.456-2.125h.446l.616 2.601h-.426l-.403-2.127h-.01l-.432 2.127h-.48l-.441-2.127h-.01l-.417 2.127h-.428zM179.724 45.632h.446v.514h-.446z" fill="#fff"/><path d="M180.796 44.778h.407v1.15h.01a.59.59 0 0 1 .544-.364c.674 0 .85.825.85 1.417 0 .77-.234 1.32-.85 1.32-.282 0-.51-.195-.563-.39h-.01v.322h-.388zm.383 2.154c0 .593.073 1.019.524 1.019.38 0 .476-.398.476-.97 0-.67-.097-1.068-.476-1.068-.436 0-.524.515-.524 1.019M184.75 46.884v.165c0 .558-.072 1.252-.867 1.252-.801 0-.927-.752-.927-1.403 0-.893.267-1.334.903-1.334.708 0 .872.646.872.922h-.406c0-.194-.054-.602-.442-.602-.5 0-.5.602-.5 1zm-1.352.32v.097c0 .155.048.68.475.68.359 0 .452-.345.452-.636v-.14zM186.91 48.233h-.387v-.33h-.011c-.053.203-.281.398-.563.398-.66 0-.848-.665-.848-1.37 0-.344.048-1.3.805-1.3.257 0 .5.132.587.35h.01v-.34c0-.18.02-.582-.505-.582-.213 0-.398.092-.417.33h-.408c.068-.65.694-.65.853-.65.525 0 .884.28.884 1.058zm-.907-.282c.436 0 .524-.514.524-1.02 0-.532-.088-.95-.53-.95-.406 0-.47.529-.47.95 0 .622.097 1.02.476 1.02M187.47 48.63h.407v.466h-.407zm0-2.998h.407v2.601h-.407z" fill="#fff" fill-rule="evenodd"/><path d="M188.526 45.632h.446v.514h-.446z" fill="#fff"/><path d="M189.623 48.63h.408v.466h-.408zm0-2.998h.408v2.601h-.408z" fill="#fff" fill-rule="evenodd"/><path d="M190.589 45.632h.407v1.795c0 .378.297.523.515.523.368 0 .383-.324.383-.523v-1.795h.408v1.843c0 .306 0 .825-.685.825-.252 0-.524-.136-.63-.374h-.011v.307h-.387zM192.957 45.632h.409v2.28h.445v.321h-.445v.305c0 .18.086.247.26.247h.19v.35h-.295c-.394 0-.564-.205-.564-.597v-.305h-.378v-.322h.378z" fill="#fff"/><path d="M194.893 45.883c-.417 0-.5.486-.5 1.048 0 .565.089 1.05.5 1.05.437 0 .52-.486.52-1.05 0-.561-.088-1.047-.52-1.047m-.927 1.047c0-.731.186-1.367.937-1.367.747 0 .936.635.936 1.367 0 .735-.184 1.37-.936 1.37-.746 0-.937-.636-.937-1.37" fill="#fff" fill-rule="evenodd"/></g><path d="M49.61 9.883h-9.883V0h9.883z" fill="#ed1e24"/><g clip-path="url(#e)" transform="matrix(.35278 0 0 -.35278 -33.129 27.414)"><path d="M216.384 53.673h-4.37v15.184h-2.858v2.578c1.96-.028 3.25.784 3.95 2.69h3.278zM226.048 70.427c-.925 0-1.148-.449-1.148-2.382 0-1.932.223-2.381 1.148-2.381.925 0 1.148.448 1.148 2.381 0 1.934-.223 2.382-1.148 2.382m0-8.069c-1.008 0-1.261-.7-1.261-2.605 0-1.933.253-2.605 1.261-2.605s1.261.672 1.261 2.605c0 1.905-.253 2.606-1.261 2.606m-5.631-2.858c0 2.017.448 3.446 2.101 4.707-1.373 1.372-1.877 2.577-1.877 4.426 0 3.222 2.045 5.49 5.407 5.49s5.407-2.268 5.407-5.49c0-1.85-.504-3.054-1.877-4.426 1.653-1.261 2.101-2.69 2.101-4.707 0-3.67-1.148-6.164-5.631-6.164-4.482 0-5.631 2.494-5.631 6.164" fill="#fff"/><path d="M233.976 50.255h-26.893v26.893h26.893zm-27.454-6.724h28.014v34.178h-28.014" fill="#231f20"/><path d="M233.415 74.976h-.26v1.27h-.008l-.447-1.27h-.212l-.424 1.27h-.008v-1.27h-.26v1.612h.413l.402-1.199h.007l.392 1.2h.405zm-1.806 1.612v-.209h-.443v-1.403h-.26v1.403h-.443v.21z" fill="#231f20"/><path d="M208.301 45.632h.475l.437 2.125h.01l.456-2.125h.446l.616 2.601h-.426l-.403-2.127h-.01l-.432 2.127h-.48l-.442-2.127h-.01l-.417 2.127h-.427zM211.446 45.632h.475l.437 2.125h.01l.456-2.125h.446l.616 2.601h-.426l-.403-2.127h-.01l-.432 2.127h-.48l-.44-2.127h-.012l-.417 2.127h-.427zM214.591 45.632h.475l.437 2.125h.01l.456-2.125h.446l.616 2.601h-.426l-.403-2.127h-.01l-.432 2.127h-.48l-.44-2.127h-.01l-.418 2.127h-.428zM217.262 45.632h.446v.514h-.446z" fill="#fff"/><path d="M218.334 44.778h.407v1.15h.01a.59.59 0 0 1 .544-.364c.674 0 .849.825.849 1.417 0 .77-.233 1.32-.85 1.32-.281 0-.51-.195-.562-.39h-.01v.322h-.388zm.383 2.154c0 .593.073 1.019.524 1.019.379 0 .476-.398.476-.97 0-.67-.097-1.068-.476-1.068-.436 0-.524.515-.524 1.019M222.289 46.884v.165c0 .558-.073 1.252-.868 1.252-.801 0-.927-.752-.927-1.403 0-.893.267-1.334.903-1.334.708 0 .872.646.872.922h-.406c0-.194-.054-.602-.442-.602-.5 0-.5.602-.5 1zm-1.353.32v.097c0 .155.048.68.475.68.359 0 .452-.345.452-.636v-.14zM224.448 48.233h-.387v-.33h-.011c-.053.203-.281.398-.563.398-.66 0-.848-.665-.848-1.37 0-.344.048-1.3.805-1.3.257 0 .5.132.587.35h.01v-.34c0-.18.02-.582-.505-.582-.213 0-.398.092-.417.33h-.408c.068-.65.694-.65.853-.65.525 0 .884.28.884 1.058zm-.907-.282c.436 0 .524-.514.524-1.02 0-.532-.088-.95-.53-.95-.406 0-.47.529-.47.95 0 .622.097 1.02.476 1.02M225.007 48.63h.407v.466h-.407zm0-2.998h.407v2.601h-.407z" fill="#fff" fill-rule="evenodd"/><path d="M226.064 45.632h.446v.514h-.446z" fill="#fff"/><path d="M227.161 48.63h.408v.466h-.408zm0-2.998h.408v2.601h-.408z" fill="#fff" fill-rule="evenodd"/><path d="M228.127 45.632h.407v1.795c0 .378.297.523.515.523.368 0 .383-.324.383-.523v-1.795h.408v1.843c0 .306 0 .825-.685.825-.252 0-.524-.136-.63-.374h-.011v.307h-.387zM230.495 45.632h.409v2.28h.445v.321h-.445v.305c0 .18.086.247.26.247h.19v.35h-.295c-.394 0-.564-.205-.564-.597v-.305h-.378v-.322h.378z" fill="#fff"/><path d="M232.43 45.883c-.417 0-.499.486-.499 1.048 0 .565.088 1.05.5 1.05.436 0 .52-.486.52-1.05 0-.561-.088-1.047-.52-1.047m-.928 1.047c0-.731.187-1.367.938-1.367.747 0 .936.635.936 1.367 0 .735-.184 1.37-.936 1.37-.746 0-.937-.636-.937-1.37" fill="#fff" fill-rule="evenodd"/></g></svg>