<svg xmlns:i="&amp;ns_ai;" xmlns="http://www.w3.org/2000/svg" i:viewOrigin="0 298.812" i:rulerOrigin="6950.5 7049.5" i:pageBounds="-6950.5 7350.5 7449.5 -7049.5" width="93.068" height="130.348"><g i:layer="yes" i:dimmedPercent="50" i:rgbTrio="#4F008000FFFF"><path i:knockout="Off" fill="#fff" d="M.981 129.432h91.108V.926H.981z"/><path i:knockout="Off" d="M3.364 3.342h86.359v123.73H3.364z"/><path i:knockout="Off" fill="#fff" d="M7.925 23.72h77.176v76.747H7.925z"/><path i:knockout="Off" d="M92.411 0H0v130.348h93.068V0zm-.669 129.092H1.33V1.255h90.412z"/><path i:knockout="Off" d="M11.858 108.092c-.013.134-.018.267-.031.395-.07 1.251-.5 2.221-1.986 2.221-2.196 0-2.333-1.337-2.333-3.176v-.978c.054-1.76.198-3.049 2.333-3.049 1.185.011 1.855.604 1.947 1.777.02.163.039.352.026.522h-1.311c-.056-.438-.012-1.268-.662-1.268-1.053 0-.965 1.203-.965 1.744v1.894c0 .564.05 1.487.965 1.487.728 0 .647-1.125.673-1.569zM12.861 106.554c.057-1.76.2-3.049 2.334-3.049 2.133 0 2.273 1.289 2.327 3.049v.978c0 1.838-.138 3.176-2.327 3.176-2.191 0-2.334-1.337-2.334-3.176zm1.368 1.623c0 .568.047 1.487.967 1.487.948 0 .957-.937.957-1.604v-1.751c0-.548.032-1.771-.957-1.771-1.047 0-.967 1.2-.967 1.744zM21.937 103.675h1.341v6.862h-1.399l-1.04-2.445c-.349-.815-.636-1.643-.952-2.726h-.017c.051.574.101 1.259.151 1.962.033.683.06 1.363.06 1.918v1.291h-1.332v-6.862h1.382l1.033 2.503c.341.786.633 1.604.957 2.723h.017c-.047-.62-.096-1.294-.134-1.95a38.427 38.427 0 0 1-.066-1.933v-1.343zM28.532 104.685h-1.55v5.852h-1.338v-5.852h-1.56v-1.01h4.448zM33.053 103.675v1.01h-2.422v1.728h2.234v1.006h-2.234v2.115h2.422v1.003h-3.761v-6.862zM37.292 103.675h1.333v6.862h-1.394l-1.033-2.445c-.354-.815-.636-1.643-.959-2.726h-.015c.051.574.104 1.259.147 1.962.041.683.064 1.363.064 1.918v1.291h-1.334v-6.862h1.378l1.04 2.503c.346.786.628 1.604.956 2.723h.017a77.791 77.791 0 0 1-.13-1.95 34.308 34.308 0 0 1-.07-1.933zM43.886 104.685h-1.558v5.852h-1.33v-5.852h-1.559v-1.01h4.447zM48.388 107.574v2.963H47.05v-6.865h2.525c1.157 0 2.023.381 2.023 1.646 0 .752-.191 1.532-1.09 1.653V107c.797.101 1.033.574 1.033 1.243 0 .28-.036 1.958.29 2.167v.127h-1.477c-.159-.437-.127-1.288-.14-1.734-.006-.429 0-.998-.458-1.128-.365-.108-.743-.101-1.131-.101zm0-1.004h1.047c.437-.022.779-.29.779-.988 0-.766-.337-.893-.836-.896h-.99zM52.325 110.537l1.716-6.862h1.792l1.622 6.862H56.03l-.352-1.734h-1.564l-.356 1.734zm1.997-2.744h1.145l-.363-1.953c-.063-.32-.089-.626-.133-.949a4.688 4.688 0 0 0-.05-.463h-.011c-.031.147-.04.302-.048.463-.05.323-.083.629-.14.949zM62.157 104.685h-1.552v5.852h-1.338v-5.852h-1.559v-1.01h4.449zM66.678 103.675v1.01h-2.415v1.728h2.22v1.006h-2.22v2.115h2.415v1.003h-3.755v-6.862zM67.767 110.537v-6.862h2.777c.327 0 .975.128 1.383.767.307.479.384 1.248.384 2.372 0 1.36 0 2.924-1.088 3.554-.297.15-.658.169-.988.169zm1.911-1.003c1.193 0 1.271-.614 1.271-2.592 0-1.627-.176-2.259-.974-2.259h-.88v4.852h.583zM75.904 110.54v-6.869h2.149c.576 0 1.144.027 1.516.505.303.375.355.767.355 1.226 0 .6-.14 1.187-.854 1.441v.019c.743.102 1.033.704 1.033 1.601 0 .274-.016.559-.102.838-.28.871-.797 1.239-1.74 1.239zm1.614-1.006c.28 0 .564.022.809-.073.36-.16.4-.613.4-.955 0-.737-.149-1.053-.971-1.053h-.519v2.081zm-.036-3.085c.326 0 .741.017.956-.25.121-.17.14-.401.14-.738 0-.505-.115-.762-.728-.775h-.612v1.764h.244zM82.909 105.466c.141.348.255.7.31 1.062h.02c.101-.535.281-.919.447-1.294l.625-1.558h1.465l-1.892 3.945v2.917h-1.33v-2.917l-1.855-3.945h1.454zM22.15 112.561v2.38h-8.621v1.448h7.296v2.367h-7.296v1.587h8.955v2.367H7.744v-10.149zM36.966 115.513c-.091-.337-.404-.562-.831-.686-.411-.13-.925-.189-1.495-.189-1.27 0-1.845.218-1.845.59 0 1.514 10.161.57 10.161 4.258 0 2.347-3.414 3.494-8.266 3.494-4.665 0-7.705-1.565-7.826-3.39h5.542c.121.365.467.633.963.795.464.168 1.065.259 1.646.259 1.443 0 2.403-.267 2.403-.744 0-1.539-10.167-.486-10.167-4.355 0-2.161 3.244-3.244 7.661-3.244 4.904 0 7.137 1.444 7.556 3.212zM53.517 119.182v3.531h-5.789v-10.152h8.336c5.887 0 7.828.929 7.828 2.901 0 1.171-.907 2.143-2.964 2.478 1.862.395 2.993.646 2.993 2.689 0 1.324-.082 1.776.609 1.776v.308h-5.868c-.147-.229-.288-.881-.288-1.778 0-1.326-.397-1.753-3.09-1.753zm0-2.226h2.274c1.799 0 2.751-.267 2.751-.962 0-.712-.973-1.053-2.331-1.053h-2.694zM69.544 122.71v-10.149h8.437c3.978 0 7.143.547 7.143 2.559 0 1.043-1.18 1.806-2.308 2.205 1.911.28 2.94 1.234 2.94 2.326 0 2.265-3.012 3.059-7.608 3.059zm5.784-4.235v1.868h2.525c1.429 0 2.504-.169 2.504-.929 0-.887-1.343-.938-3.191-.938h-1.838zm0-3.534v1.692h2.409c1.151 0 1.992-.308 1.992-.89 0-.789-1.138-.802-2.363-.802z" fill="#fff"/><path i:knockout="Off" d="M10.192 30.585c0-2.238 1.983-4.056 4.466-4.056 2.457 0 4.434 1.817 4.434 4.056 0 2.256-1.977 4.08-4.434 4.08-2.482 0-4.466-1.824-4.466-4.08m8.117 0c0-1.835-1.625-3.335-3.65-3.335-2.033 0-3.686 1.5-3.686 3.335 0 1.852 1.653 3.364 3.686 3.364 2.024.001 3.65-1.512 3.65-3.364m-4.601.284v2.057h-.82v-4.795h1.699c.962 0 1.937.241 1.937 1.327 0 .548-.351.987-1.048 1.118v.026c.709.127.802.427.883.942.078.45.13.948.308 1.382h-1.044c-.056-.268-.143-.583-.174-.857-.052-.408-.052-.799-.296-1.017-.201-.182-.475-.163-.76-.182h-.685m.87-.754c.757-.026.946-.33.946-.682 0-.36-.189-.551-.836-.551h-.979v1.232h.869z"/><path i:knockout="Off" d="M77.142 6.481c-1.354 0-2.581.626-2.581 2.312v8.519c0 1.675 1.227 2.31 2.581 2.31 1.363 0 2.579-.635 2.579-2.31V8.793c0-1.686-1.216-2.312-2.579-2.312m.389 10.42c0 .351-.04.84-.389.84-.338 0-.384-.489-.384-.84V9.197c0-.349.045-.832.384-.832.35 0 .389.483.389.832zM70.864 6.481c-1.356 0-2.568.626-2.568 2.312v8.519c0 1.675 1.212 2.31 2.568 2.31 1.347 0 2.579-.635 2.579-2.31V8.793c0-1.686-1.232-2.312-2.579-2.312m.382 10.42c0 .351-.039.84-.382.84-.342 0-.384-.489-.384-.84V9.197c0-.349.042-.832.384-.832.343 0 .382.483.382.832zM64.361 6.739h-2.192v12.625h2.192V13.33h.772v6.034h2.193V6.739h-2.193v4.572h-.772zM58.726 6.735h-2.585v12.629h2.585c1.339 0 2.574-.613 2.574-2.298V9.044c-.001-1.693-1.236-2.309-2.574-2.309m.381 9.986c0 .357-.051.844-.382.844h-.401V8.558h.401c.331 0 .382.459.382.831zM51.388 19.368h4.124v-1.803h-1.928V6.735h-2.196zM47.946 6.735h2.19v12.633h-2.19zM43.971 6.739h-2.188v12.625h2.188V13.33h.779v6.034h2.191V6.739H44.75v4.572h-.779zM38.147 6.481c-1.356 0-2.57.629-2.57 2.312v8.519c0 1.675 1.214 2.31 2.57 2.31 1.362 0 2.59-.635 2.59-2.31v-2.911h-2.19v2.5c0 .351-.057.84-.399.84-.336 0-.379-.489-.379-.84V9.197c0-.349.043-.832.379-.832.342 0 .399.483.399.832v1.979h2.19V8.792c0-1.682-1.228-2.311-2.59-2.311M30.577 6.735h-2.295l1.819 6.292v6.337h2.189v-6.337l1.676-6.292h-1.979l-.675 5.03h-.037zM24.62 19.364h4.13v-1.812h-1.933V6.745H24.62zM23.567 14.634c0-1.435-.305-2.04-1.698-2.132v-.036c1.322-.085 1.698-1.105 1.698-2.064V9.295c0-1.943-1.221-2.559-2.579-2.559h-2.572v12.629h2.19v-5.894c.772 0 .772.608.772 1.385v2.886c0 .857.136 1.265.304 1.623h2.221c-.127-.479-.337-.998-.337-2.24v-2.491zm-2.189-3.433c0 .62-.155.812-.511.812h-.261V8.558h.261c.356 0 .511.186.511.794zM13.5 6.735l-1.645 12.633h1.962l.333-3.44h1.047l.238 3.44h2.287L16.408 6.735zm.835 7.381l.361-5.177h.057l.302 5.177zM11.314 17.565H9.402v-4.32h1.828v-1.802H9.402V8.561h1.912V6.735H7.215v12.629h4.099zM83.354 6.735h-2.576v12.629h2.576c1.349 0 2.573-.613 2.573-2.298V9.044c-.001-1.693-1.224-2.309-2.573-2.309m.394 9.986c0 .357-.059.844-.395.844h-.384V8.558h.384c.335 0 .395.459.395.831z" fill="#fff"/><path i:knockout="Off" d="M21.164 65.826c.201 1.533.488 3.067.957 4.648.384 1.324.856 2.569 1.361 3.776l6.94-1.695c-1.216-4.545-4.293-7.606-9.258-6.729"/><path i:knockout="Off" d="M82.848 61.84l-18.455 4.521c.708 5.057-1.121 9.513-7.306 11.021-9.762 2.391-13.522-3.879-15.61-11.021-2.882-9.838-.297-15.84 6.455-17.497 6.019-1.475 10.73.626 12.861 5.796l18.215-4.469c-5.383-12.697-17.653-17.953-35.539-13.567-13.345 3.256-22.336 12.775-22.581 25.12 8.195-1.339 13.532 2.958 15.741 10.452l.779 2.657-12.123 2.96c1.742 2.976 3.914 5.489 6.478 7.488.708-1.154.93-2.637.678-4.577l5.887-1.441c.54 3.524-.404 6.439-2.442 8.652 6.753 3.456 15.372 4.205 25.175 1.807C76.521 85.966 85 75.394 82.848 61.84"/><path i:knockout="Off" d="M26.963 88.242c-5.714 1.41-9.35-3.213-10.389-8.293l8.71-2.138a32.839 32.839 0 0 1-1.803-3.56l-8.005 1.958c-1.361-4.648.293-9.091 4.939-10.234.254-.071.508-.112.75-.145-.185-1.392-.299-2.765-.275-4.085-.389.06-.796.134-1.21.216-9.35 2.302-11.657 10.321-9.231 18.633 2.461 8.359 8.117 13.901 17.598 11.581 3.334-.812 6.018-2.266 7.837-4.238a25.702 25.702 0 0 1-4.123-2.631c-.848 1.43-2.406 2.359-4.798 2.936"/><g><path i:knockout="Off" fill="#fff" d="M105.667 129.433h91.109V.92h-91.109z"/><path i:knockout="Off" d="M108.051 3.339h86.358v123.728h-86.358z"/><path i:knockout="Off" fill="#fff" d="M112.608 23.719h77.184v76.75h-77.184z"/><path i:knockout="Off" d="M197.098-.007h-92.411v130.355h93.068V-.007zm-.668 129.098h-90.417V1.252h90.417z"/><path i:knockout="Off" d="M116.544 108.091c-.012.131-.019.268-.031.396-.067 1.253-.499 2.217-1.989 2.217-2.196 0-2.33-1.338-2.33-3.172v-.979c.055-1.758.201-3.048 2.33-3.048 1.186.012 1.855.602 1.947 1.776.024.165.042.353.03.523h-1.314c-.055-.441-.012-1.271-.663-1.271-1.053 0-.961 1.208-.961 1.746v1.892c0 .571.048 1.49.961 1.49.73 0 .651-1.125.675-1.57zM117.548 106.552c.054-1.758.2-3.048 2.33-3.048 2.136 0 2.275 1.29 2.33 3.048v.979c0 1.834-.14 3.176-2.33 3.176s-2.33-1.341-2.33-3.176zm1.369 1.621c0 .568.042 1.487.961 1.487.949 0 .961-.937.961-1.6v-1.752c0-.548.03-1.773-.961-1.773-1.046 0-.961 1.208-.961 1.743zM126.625 103.671h1.338v6.865h-1.393l-1.046-2.446c-.347-.815-.633-1.643-.949-2.729h-.019c.049.575.104 1.263.146 1.968.037.682.067 1.362.067 1.913v1.294h-1.333v-6.865h1.381l1.035 2.503c.34.791.632 1.606.955 2.726h.019a88.472 88.472 0 0 1-.134-1.953 34.959 34.959 0 0 1-.067-1.929zM133.22 104.681h-1.552v5.855h-1.338v-5.855h-1.558v-1.01h4.448zM137.74 103.671v1.01h-2.422v1.728h2.233v1.01h-2.233v2.114h2.422v1.003h-3.76v-6.865zM141.98 103.671h1.333v6.865h-1.393l-1.034-2.446c-.353-.815-.639-1.643-.955-2.729h-.019c.049.575.104 1.263.146 1.968.042.682.067 1.362.067 1.913v1.294h-1.338v-6.865h1.381l1.041 2.503c.347.791.626 1.606.955 2.726h.019a82.754 82.754 0 0 1-.134-1.953 34.959 34.959 0 0 1-.067-1.929v-1.347zM148.575 104.681h-1.557v5.855h-1.332v-5.855h-1.558v-1.01h4.447zM153.077 107.574v2.962h-1.338v-6.868h2.525c1.156 0 2.026.383 2.026 1.648 0 .751-.195 1.533-1.089 1.655v.024c.791.1 1.028.578 1.028 1.247 0 .277-.037 1.958.285 2.166v.128h-1.472c-.158-.438-.127-1.29-.14-1.733-.006-.426 0-.998-.456-1.132-.365-.104-.749-.098-1.132-.098h-.237zm0-1.004h1.047c.438-.024.778-.292.778-.992 0-.766-.334-.894-.833-.9h-.992zM157.019 110.536l1.709-6.862h1.794l1.619 6.862h-1.423l-.353-1.737h-1.563l-.353 1.737zm1.989-2.743h1.144l-.359-1.953c-.066-.322-.091-.626-.134-.949a5.173 5.173 0 0 0-.048-.462h-.012c-.03.146-.037.298-.049.462-.049.322-.079.626-.14.949zM166.845 104.681h-1.552v5.855h-1.338v-5.855h-1.558v-1.01h4.448zM171.364 103.671v1.01h-2.415v1.728h2.221v1.01h-2.221v2.114h2.415v1.003h-3.753v-6.865zM172.453 110.536v-6.865h2.781c.322 0 .973.131 1.381.77.304.48.383 1.247.383 2.372 0 1.357 0 2.927-1.089 3.553-.292.152-.657.17-.992.17zm1.911-1.006c1.192 0 1.271-.605 1.271-2.589 0-1.63-.177-2.263-.973-2.263h-.876v4.852zM180.593 110.536v-6.868h2.148c.578 0 1.144.03 1.515.505.304.377.359.767.359 1.229 0 .596-.14 1.187-.857 1.442v.018c.742.104 1.034.706 1.034 1.6 0 .28-.018.56-.097.837-.286.873-.803 1.238-1.746 1.238h-2.356zm1.613-1.009c.28 0 .566.027.81-.067.359-.161.401-.614.401-.955 0-.736-.151-1.059-.973-1.059h-.517v2.081zm-.037-3.082c.329 0 .742.018.956-.247.122-.176.14-.404.14-.742 0-.505-.11-.76-.725-.772h-.614v1.761zM187.596 105.469c.14.341.256.694.31 1.056h.024c.098-.536.28-.916.438-1.293l.632-1.56h1.46l-1.886 3.945v2.919h-1.332v-2.92l-1.855-3.945h1.454zM126.838 112.562v2.376h-8.621v1.451h7.295v2.361h-7.295v1.594h8.955v2.366h-14.74v-10.148zM141.658 115.513c-.091-.341-.414-.566-.833-.688-.414-.128-.925-.188-1.497-.188-1.271 0-1.844.219-1.844.587 0 1.512 10.16.575 10.16 4.256 0 2.354-3.413 3.498-8.268 3.498-4.66 0-7.702-1.558-7.824-3.389h5.542c.122.365.468.633.961.796.462.171 1.071.256 1.643.256 1.448 0 2.409-.268 2.409-.746 0-1.536-10.166-.483-10.166-4.353 0-2.16 3.243-3.243 7.659-3.243 4.904 0 7.137 1.442 7.557 3.212h-5.499zM158.206 119.179v3.532h-5.792v-10.148h8.341c5.883 0 7.824.925 7.824 2.896 0 1.174-.906 2.147-2.963 2.482 1.861.396 2.993.639 2.993 2.689 0 1.32-.079 1.773.608 1.773v.308h-5.864c-.146-.225-.292-.876-.292-1.777 0-1.326-.396-1.755-3.09-1.755zm0-2.224h2.275c1.794 0 2.75-.265 2.75-.967 0-.709-.974-1.053-2.331-1.053h-2.695v2.02zM174.23 122.71v-10.148h8.438c3.979 0 7.143.544 7.143 2.555 0 1.046-1.181 1.807-2.306 2.208 1.91.28 2.938 1.232 2.938 2.324 0 2.27-3.011 3.061-7.604 3.061zm5.786-4.234v1.868h2.524c1.43 0 2.507-.17 2.507-.931 0-.888-1.345-.937-3.194-.937zm0-3.538v1.692h2.409c1.15 0 1.99-.302 1.99-.889 0-.791-1.138-.803-2.354-.803z" fill="#fff"/><path i:knockout="Off" d="M114.877 30.581c0-2.233 1.983-4.052 4.465-4.052 2.458 0 4.435 1.819 4.435 4.052 0 2.257-1.978 4.079-4.435 4.079-2.482.001-4.465-1.822-4.465-4.079m8.116 0c0-1.837-1.625-3.334-3.65-3.334-2.032 0-3.681 1.497-3.681 3.334 0 1.855 1.649 3.364 3.681 3.364 2.026.001 3.65-1.508 3.65-3.364m-4.599.284v2.059h-.815V28.13h1.698c.961 0 1.935.237 1.935 1.326 0 .544-.353.985-1.046 1.119v.021c.706.125.803.429.882.946.08.451.128.949.311 1.381h-1.047c-.061-.268-.139-.584-.176-.861-.049-.408-.049-.797-.292-1.013-.2-.185-.474-.164-.76-.185h-.69m.87-.754c.761-.021.949-.325.949-.678 0-.359-.188-.553-.839-.553h-.979v1.231z"/><path i:knockout="Off" fill="#fff" d="M190.358 14.904v-2.489h-3.93v-2.302h4.058v-2.51h-7.204v12.472h7.228v-2.482h-4.082v-2.689zM175.836 7.603h-3.231v12.475h2.981l-.285-6.945.036-.033 2.44 6.978h3.218V7.603h-2.981l.304 6.978h-.048zM166.498 7.384c-2.75 0-4.283 1.326-4.283 3.711v5.086c0 2.811 1.101 4.271 4.283 4.271 3.188 0 4.234-1.46 4.234-4.271v-5.085c-.001-2.386-1.491-3.712-4.234-3.712m1.083 9.041c0 .721-.073 1.776-1.083 1.776-1.016 0-1.149-1.056-1.149-1.776v-5.116c0-.773.133-1.683 1.131-1.683 1.028 0 1.102.91 1.102 1.683v5.116zM154.5 7.603h-3.175l3.163 7.234v5.238h3.139v-5.238l3.237-7.234h-3.139l-1.606 4.085h-.043zM150.181 15.549c-.048-.864-.675-1.43-1.545-1.603v-.052c1.32-.542 1.661-1.506 1.661-2.835 0-2.47-1.295-3.456-3.857-3.456h-4.6V20.08h3.146v-4.927h1.047c.73.064.967.554 1.07 1.326.079.767.006 1.795.067 2.893.012.24.085.478.176.708h3.432v-.164a.871.871 0 0 1-.304-.417c-.178-.805-.202-2.953-.293-3.95m-4.124-2.632h-1.071V9.86c1.54-.024 2.196.024 2.196 1.502 0 .782-.213 1.555-1.125 1.555M139.693 12.415h-3.937v-2.302h4.071V7.606h-7.209v12.472h7.409v-2.485h-4.271v-2.689h3.937zM124.66 7.603h-3.145l2.907 12.477h3.7l2.938-12.477h-3.145l-1.613 8.754h-.036zM119.933 12.415h-3.967v-2.302h4.095V7.606h-7.252v12.472h7.464v-2.485h-4.307v-2.689h3.967z"/><path i:knockout="Off" d="M173.476 41.897l-28.132 7.133 1.802 6.318 28.125-7.118 4.386 15.447-28.143 7.124 1.88 6.661 28.142-7.127 4.375 15.447-47.709 12.085-16.815-59.328 47.714-12.086z"/></g><g><path i:knockout="Off" fill="#fff" d="M315.043 129.433h91.107V.92h-91.107z"/><path i:knockout="Off" d="M317.424 3.342h86.36V127.07h-86.36z"/><path i:knockout="Off" fill="#fff" d="M321.984 23.716h77.18v76.752h-77.18z"/><path i:knockout="Off" d="M406.474-.005h-92.413v130.353h93.069V-.005zm-.67 129.096H315.39V1.255h90.414z"/><path i:knockout="Off" d="M325.919 108.091c-.013.134-.021.268-.032.398-.068 1.25-.501 2.214-1.986 2.214-2.196 0-2.333-1.338-2.333-3.172v-.979c.054-1.758.199-3.048 2.333-3.048 1.187.012 1.855.602 1.947 1.773.021.167.039.356.026.523h-1.311c-.056-.438-.012-1.266-.663-1.266-1.052 0-.966 1.205-.966 1.746v1.892c0 .572.05 1.487.966 1.487.727 0 .648-1.128.673-1.57h1.346zM326.921 106.552c.057-1.758.199-3.048 2.333-3.048 2.134 0 2.274 1.29 2.331 3.048v.979c0 1.834-.143 3.172-2.331 3.172-2.189 0-2.333-1.338-2.333-3.172zm1.368 1.621c0 .572.047 1.487.965 1.487.949 0 .958-.937.958-1.6v-1.752c0-.548.032-1.773-.958-1.773-1.046 0-.965 1.205-.965 1.746zM335.998 103.671h1.34v6.865h-1.396l-1.046-2.443a24.1 24.1 0 0 1-.948-2.731h-.018a73.6 73.6 0 0 1 .146 1.968c.037.682.064 1.362.064 1.913v1.293h-1.332v-6.865h1.383l1.034 2.503c.34.791.632 1.606.956 2.722h.016a92.826 92.826 0 0 1-.134-1.95 36.993 36.993 0 0 1-.065-1.932zM342.593 104.681h-1.55v5.855h-1.34v-5.855h-1.557v-1.01h4.447zM347.112 103.671v1.01h-2.421v1.731h2.235v1.007h-2.235v2.111h2.421v1.006h-3.759v-6.865zM351.354 103.671h1.332v6.865h-1.395l-1.034-2.443c-.352-.818-.639-1.648-.954-2.731h-.019c.051.575.104 1.263.146 1.968.042.682.066 1.362.066 1.913v1.293h-1.336v-6.865h1.379l1.04 2.503c.346.791.628 1.606.957 2.722h.015c-.046-.617-.097-1.293-.13-1.95a34.031 34.031 0 0 1-.068-1.932v-1.343zM357.948 104.681h-1.557v5.855h-1.333v-5.855H353.5v-1.01h4.448zM362.45 107.577v2.959h-1.34v-6.865h2.526c1.155 0 2.024.38 2.024 1.643 0 .754-.194 1.536-1.086 1.658v.024c.791.1 1.026.581 1.026 1.247 0 .277-.037 1.958.287 2.166v.127h-1.474c-.158-.438-.128-1.287-.141-1.737-.006-.423 0-.995-.457-1.128-.364-.104-.748-.095-1.131-.095h-.234zm0-1.007h1.046c.44-.024.778-.289.778-.992 0-.766-.335-.894-.834-.897h-.99zM366.391 110.536l1.711-6.865h1.794l1.619 6.865h-1.424l-.352-1.737h-1.563l-.356 1.737zm1.991-2.743h1.142l-.356-1.953c-.065-.322-.09-.626-.135-.949a4.705 4.705 0 0 0-.05-.462h-.013c-.029.143-.035.298-.046.462-.051.322-.081.626-.141.949zM376.219 104.681h-1.552v5.855h-1.339v-5.855h-1.557v-1.01h4.448zM380.739 103.671v1.01h-2.415v1.731h2.221v1.007h-2.221v2.111h2.415v1.006h-3.754v-6.865zM381.828 110.536v-6.865h2.777c.325 0 .977.131 1.384.77.302.48.383 1.244.383 2.372 0 1.36 0 2.927-1.088 3.55-.296.155-.658.173-.992.173zm1.91-1.006c1.192 0 1.271-.608 1.271-2.589 0-1.627-.176-2.26-.973-2.26h-.88v4.849zM389.965 110.536v-6.865h2.15c.575 0 1.145.027 1.515.502.305.374.356.767.356 1.229 0 .6-.141 1.187-.854 1.442v.018c.742.104 1.034.706 1.034 1.6 0 .283-.019.56-.098.837-.285.875-.803 1.238-1.746 1.238h-2.357zm1.615-1.006c.279 0 .563.024.81-.07.358-.161.398-.611.398-.955 0-.736-.149-1.056-.97-1.056h-.518v2.081zm-.036-3.085c.325 0 .739.018.955-.247.121-.173.14-.404.14-.742 0-.505-.112-.76-.727-.775h-.611v1.764zM396.971 105.469c.14.344.256.694.311 1.056h.021c.1-.536.278-.916.44-1.293l.629-1.56h1.464l-1.889 3.945v2.919h-1.33v-2.92l-1.854-3.945h1.453zM336.209 112.562v2.376h-8.618v1.448h7.294v2.367h-7.294v1.591h8.955v2.366h-14.742v-10.148zM351.03 115.513c-.089-.341-.413-.563-.834-.688-.411-.128-.926-.188-1.495-.188-1.271 0-1.844.219-1.844.587 0 1.515 10.159.575 10.159 4.259 0 2.351-3.412 3.495-8.266 3.495-4.663 0-7.703-1.561-7.825-3.392h5.543c.121.365.467.632.962.799.461.174 1.068.259 1.641.259 1.448 0 2.408-.271 2.408-.749 0-1.536-10.165-.483-10.165-4.353 0-2.16 3.243-3.243 7.66-3.243 4.903 0 7.136 1.442 7.558 3.212h-5.502zM367.578 119.179v3.532h-5.79v-10.148h8.338c5.886 0 7.826.925 7.826 2.896 0 1.171-.905 2.147-2.962 2.482 1.861.396 2.993.642 2.993 2.686 0 1.323-.083 1.776.608 1.776v.308h-5.868c-.146-.225-.289-.876-.289-1.774 0-1.329-.396-1.758-3.093-1.758zm0-2.224h2.274c1.798 0 2.75-.265 2.75-.964 0-.712-.972-1.053-2.331-1.053h-2.693zM383.604 122.71v-10.148h8.438c3.979 0 7.142.544 7.142 2.555 0 1.046-1.18 1.807-2.309 2.205 1.914.283 2.941 1.235 2.941 2.327 0 2.27-3.011 3.061-7.607 3.061zm5.786-4.237v1.871h2.525c1.429 0 2.503-.174 2.503-.931 0-.885-1.342-.939-3.19-.939h-1.838zm0-3.535v1.692h2.41c1.149 0 1.989-.302 1.989-.889 0-.791-1.139-.803-2.358-.803z" fill="#fff"/><path i:knockout="Off" d="M324.252 30.584c0-2.239 1.984-4.058 4.467-4.058 2.458 0 4.434 1.819 4.434 4.058 0 2.257-1.976 4.076-4.434 4.076-2.483.001-4.467-1.818-4.467-4.076m8.117 0c0-1.84-1.626-3.34-3.65-3.34-2.033 0-3.681 1.5-3.681 3.34 0 1.853 1.647 3.364 3.681 3.364 2.024.001 3.65-1.511 3.65-3.364m-4.599.281v2.059h-.819v-4.797h1.697c.962 0 1.938.243 1.938 1.326 0 .547-.353.991-1.05 1.125v.018c.71.128.803.426.883.943.079.451.132.949.309 1.384h-1.043c-.06-.271-.143-.581-.175-.861-.052-.408-.052-.797-.292-1.016-.205-.182-.479-.164-.764-.182h-.684m.868-.754c.761-.018.948-.328.948-.681 0-.356-.188-.547-.838-.547h-.979v1.229h.869zM390.412 42.131l-19.28 4.794 12.932 44.822-21.461 5.345-12.943-44.828-19.277 4.8-4.607-15.958 60.025-14.926z"/><path i:knockout="Off" fill="#fff" d="M393.575 13.849l-.224-2.824V7.089h5.579v12.38h-5.451l-6.346-6.74.224 2.817v3.923h-5.578V7.089h5.457zM376.587 9.973h-8.657v1.779h7.328v2.89h-7.328v1.938h9.007v2.889h-14.822V7.089h14.472zM356.242 9.973h-8.65v1.779h7.32v2.89h-7.32v1.938h9.006v2.889h-14.827V7.089h14.471zM336.825 10.341h-5.224v9.128h-5.825v-9.128h-5.226V7.089h16.275z"/></g><g><path i:knockout="Off" fill="#fff" d="M261.347 271.426h90.796V143.37h-90.796z"/><path i:knockout="Off" d="M352.453 142.446h-92.08v129.902h92.736V142.446zm-.663 128.652h-90.091V143.705h90.091z"/><path i:knockout="Off" fill="#fff" d="M262.728 144.983h87.961v124.996h-87.961z"/><path i:knockout="Off" d="M263.024 145.285h87.181v124.393h-87.181z"/><path i:knockout="Off" fill="#fff" d="M267.631 165.628h78.258v78.99h-78.258zM271.793 251.34l-.028.394c-.068 1.226-.503 2.165-2.009 2.165-2.218 0-2.357-1.305-2.357-3.104v-.96c.057-1.715.202-2.986 2.357-2.986 1.203.015 1.875.59 1.97 1.739.019.168.039.345.03.512h-1.326c-.06-.429-.01-1.241-.674-1.241-1.059 0-.973 1.175-.973 1.704v1.867c0 .551.048 1.46.973 1.46.742 0 .65-1.112.683-1.549h1.354zM272.807 249.834c.057-1.715.203-2.986 2.355-2.986 2.155 0 2.299 1.271 2.355 2.986v.96c0 1.8-.145 3.104-2.355 3.104-2.209 0-2.355-1.305-2.355-3.104zm1.386 1.595c0 .551.046 1.46.969 1.46.963 0 .973-.928.973-1.575v-1.716c0-.544.031-1.74-.973-1.74-1.057 0-.969 1.175-.969 1.704zM281.977 247.006h1.347v6.735h-1.407l-1.048-2.401c-.354-.802-.643-1.611-.958-2.67h-.023c.049.554.107 1.231.146 1.919.037.673.064 1.348.064 1.887v1.266h-1.346v-6.735h1.4l1.042 2.458c.349.779.639 1.57.969 2.667h.016c-.047-.607-.096-1.262-.137-1.903a33.041 33.041 0 0 1-.065-1.904zM288.632 247.992h-1.567v5.75h-1.345v-5.75h-1.576v-.986h4.488zM293.196 247.006v.986h-2.437v1.704h2.247v.982h-2.247v2.074h2.437v.99h-3.79v-6.736zM297.479 247.006h1.345v6.735h-1.401l-1.053-2.401a21.811 21.811 0 0 1-.96-2.67h-.024c.057.554.116 1.231.153 1.919.038.673.064 1.348.064 1.887v1.266h-1.349v-6.735h1.393l1.047 2.458c.352.779.639 1.57.969 2.667h.016a90.783 90.783 0 0 1-.134-1.903 30.541 30.541 0 0 1-.065-1.904v-1.319zM304.14 247.992h-1.568v5.75h-1.351v-5.75h-1.576v-.986h4.495zM308.686 250.842v2.899h-1.353v-6.735h2.557c1.156 0 2.045.374 2.045 1.612 0 .742-.199 1.518-1.106 1.631v.015c.794.104 1.034.578 1.034 1.223 0 .277-.038 1.929.289 2.133v.122h-1.475c-.166-.43-.137-1.254-.148-1.704-.006-.414 0-.982-.464-1.107-.363-.101-.753-.088-1.149-.088h-.23zm0-.986h1.059c.437-.027.784-.294.784-.967 0-.758-.336-.885-.847-.897h-.996zM312.669 253.742l1.722-6.735h1.819l1.633 6.735H316.4l-.357-1.704h-1.575l-.356 1.704zm2.009-2.699h1.156l-.371-1.908c-.063-.313-.09-.62-.128-.934l-.051-.453h-.021l-.043.453c-.044.313-.075.621-.135.934zM322.585 247.992h-1.566v5.75h-1.346v-5.75h-1.576v-.986h4.488zM327.151 247.006v.986h-2.44v1.704h2.242v.982h-2.242v2.074h2.44v.99h-3.792v-6.736zM328.252 253.742v-6.735h2.802c.332 0 .988.134 1.396.767.311.466.394 1.211.394 2.32 0 1.336 0 2.866-1.099 3.468-.302.159-.663.181-1.004.181h-2.489zm1.935-.99c1.199 0 1.277-.593 1.277-2.54 0-1.594-.173-2.221-.985-2.221h-.882v4.761zM336.468 253.742v-6.735h2.176c.568 0 1.149.037 1.532.496.302.371.354.748.354 1.211 0 .581-.141 1.164-.871 1.411v.018c.761.102 1.053.688 1.053 1.564 0 .273-.018.554-.1.824-.283.849-.813 1.211-1.768 1.211zm1.64-.99c.279 0 .562.024.802-.07.372-.151.411-.593.411-.937 0-.721-.155-1.031-.982-1.031h-.523v2.038zm-.043-3.023c.324 0 .751.019.961-.231.127-.173.14-.411.14-.729 0-.505-.112-.758-.724-.776h-.627v1.737h.25zM343.541 248.774c.146.334.262.675.319 1.034h.012c.101-.526.285-.892.447-1.271l.645-1.53h1.473l-1.907 3.872v2.863h-1.342v-2.863l-1.883-3.872h1.476zM282.183 255.734v2.317h-8.697v1.421h7.361v2.317h-7.361v1.564h9.045v2.315h-14.89v-9.934zM297.156 258.614c-.097-.343-.421-.548-.84-.672-.426-.122-.948-.179-1.514-.179-1.284 0-1.857.206-1.857.564 0 1.487 10.257.563 10.257 4.184 0 2.299-3.441 3.416-8.346 3.416-4.715 0-7.786-1.527-7.907-3.322h5.595c.127.354.476.621.975.791.461.164 1.09.246 1.653.246 1.468 0 2.43-.262 2.43-.735 0-1.497-10.25-.469-10.25-4.262 0-2.111 3.263-3.176 7.725-3.176 4.952 0 7.214 1.414 7.628 3.145zM313.862 262.201v3.468h-5.852v-9.935h8.424c5.95 0 7.902.9 7.902 2.828 0 1.145-.912 2.108-2.993 2.432 1.881.383 3.021.632 3.021 2.631 0 1.299-.073 1.739.617 1.739v.305h-5.917c-.146-.219-.294-.858-.294-1.743 0-1.29-.407-1.725-3.127-1.725zm0-2.175h2.305c1.807 0 2.775-.249 2.775-.938 0-.702-.989-1.037-2.354-1.037h-2.726zM330.047 265.668v-9.935h8.521c4.016 0 7.212.521 7.212 2.497 0 1.022-1.186 1.768-2.324 2.163 1.929.276 2.969 1.204 2.969 2.281 0 2.218-3.05 2.993-7.678 2.993h-8.7zm5.847-4.152v1.837h2.552c1.437 0 2.527-.17 2.527-.915 0-.867-1.365-.922-3.224-.922zm0-3.465v1.655h2.424c1.168 0 2.011-.289 2.011-.864 0-.776-1.144-.791-2.382-.791z"/><path i:knockout="Off" d="M269.093 170.115c0-1.962 1.673-3.55 3.757-3.55 2.076 0 3.744 1.588 3.744 3.55 0 1.983-1.668 3.58-3.744 3.58-2.084 0-3.757-1.597-3.757-3.58m6.841 0c0-1.609-1.375-2.929-3.084-2.929-1.713 0-3.104 1.319-3.104 2.929 0 1.63 1.391 2.953 3.104 2.953 1.709 0 3.084-1.324 3.084-2.953m-3.879.237v1.813h-.688v-4.187h1.423c.813 0 1.651.201 1.651 1.153 0 .483-.311.863-.896.974v.021c.605.112.672.368.743.824.06.402.108.837.259 1.215h-.877c-.049-.235-.117-.499-.148-.749-.053-.365-.053-.69-.251-.892-.169-.173-.4-.154-.64-.173h-.576zm.725-.658c.647-.012.801-.272.801-.589 0-.311-.153-.478-.7-.478h-.826v1.066h.725z"/><path i:knockout="Off" d="M267.617 162.41v-13.339h2.625c1.371 0 2.62.664 2.62 2.701v1.178c0 .998-.382 2.086-1.72 2.181v.037c1.402.087 1.72.729 1.72 2.241v2.646c0 1.29.206 1.834.331 2.354h-2.259c-.16-.371-.3-.803-.3-1.728v-3.023c0-.828 0-1.484-.791-1.484v6.235h-2.226zm2.227-7.773h.271c.361 0 .52-.2.52-.84v-1.968c0-.635-.158-.842-.52-.842h-.271zM275.243 149.071h2.95l1.342 13.339h-2.32l-.256-3.633h-1.053l-.353 3.633h-1.98zm1.579 7.802l-.307-5.479h-.063l-.356 5.479zM281.298 150.988h-1.501v-1.917h5.227v1.917h-1.495v11.422h-2.231zM285.681 149.071h2.228v13.339h-2.228zM292.495 149.071l1.138 8.663h.03v-8.663h1.741v13.339h-2.653l-1.576-10.486-.033.037v10.449h-1.736v-13.339zM300.387 161.457h-.038a1.885 1.885 0 0 1-1.73 1.217c-1.486 0-2.24-.991-2.24-2.435v-8.987c0-1.783 1.239-2.44 2.618-2.44 1.373 0 2.618.657 2.618 2.44v2.523h-2.224v-2.095c0-.381-.05-.886-.395-.886-.351 0-.397.505-.397.886v8.127c0 .375.047.874.397.874.345 0 .395-.499.395-.874v-2.284h-.556v-1.907h2.779v6.793h-1.074zM305.766 162.41v-13.339h2.615c1.374 0 2.623.664 2.623 2.701v2.737c0 2.041-1.249 2.699-2.623 2.699h-.395v5.201h-2.22zm2.22-7.116h.273c.358 0 .517-.204.517-.845v-2.62c0-.635-.158-.842-.517-.842h-.273zM316.145 149.071v1.917h-1.942v3.052h1.869v1.909h-1.869v4.559h1.942v1.902h-4.162v-13.339zM320.054 149.071l1.138 8.663h.037v-8.663h1.735v13.339h-2.66l-1.576-10.486-.027.037v10.449h-1.741v-13.339zM323.937 149.071h2.618c1.379 0 2.622.664 2.622 2.439v8.472c0 1.776-1.243 2.428-2.622 2.428h-2.618zm2.222 11.434h.396c.351 0 .396-.509.396-.882v-7.751c0-.374-.045-.885-.396-.885h-.396zM330.278 149.071h2.232v13.339h-2.232zM336.781 149.071l1.135 8.663h.033v-8.663h1.734v13.339h-2.655l-1.576-10.486-.034.037v10.449h-1.733v-13.339zM344.672 161.457h-.04a1.89 1.89 0 0 1-1.736 1.217c-1.479 0-2.233-.991-2.233-2.435v-8.987c0-1.783 1.238-2.44 2.617-2.44 1.374 0 2.621.657 2.621 2.44v2.523h-2.221v-2.095c0-.381-.049-.886-.4-.886-.351 0-.396.505-.396.886v8.127c0 .375.046.874.396.874.352 0 .4-.499.4-.874v-2.284h-.56v-1.907h2.78v6.793h-1.07z" fill="#fff"/><path i:knockout="Off" d="M311.648 216.262c-1.352-4.787-4.021-7.583-7.851-8.563 2.375-2.646 3.728-6.769 1.908-13.238-2.553-9.031-9.03-13.393-16.908-11.389l-17.911 4.56-.363.095 14.823 52.591 11.992-3.048s-4.862-17.232-5.713-20.269l.58-.143c1.835-.472 3.168-.456 4.067.039 1.583.876 2.317 3.508 3.158 6.555l.669 2.426c.793 2.926 1.605 5.949 3.668 8.534l.809 1.01 13.696-3.479-1.837-2.26c-.924-1.132-3.223-7.855-4.787-13.421m-26.506-22.248c1.507-.387 3.053-.775 3.053-.775 1.453-.365 3.878-.985 5.652 5.313.34 1.224 1.879 7.371-1.813 8.311 0 0-1.539.39-3.05.776a9915.075 9915.075 0 0 0-3.842-13.625M323.103 174.333l-16.137 4.112-1.932.493 14.825 52.598 12.244-3.12s-4.77-16.898-5.625-19.919c2.068-.526 5.266-1.335 5.266-1.335 9.558-2.445 13.208-9.534 10.264-19.982-3.849-13.607-12.393-14.502-18.905-12.847m-3.206 10.835l3.716-.949c2.12-.538 4.532-.538 6.445 6.239.906 3.225-.042 6.734-1.946 7.228 0 0-2.367.59-4.372 1.102-.874-3.101-2.961-10.516-3.843-13.62M348.44 149.055h-2.028v116.854h2.028v3.768h1.941V145.285h-3.969 2.028z"/><g><path i:knockout="Off" fill="#fff" d="M51.982 271.433h91.109V142.92H51.982z"/><path i:knockout="Off" d="M54.364 145.335h86.36v123.733h-86.36z"/><path i:knockout="Off" fill="#fff" d="M58.924 165.715h77.18v76.753h-77.18z"/><path i:knockout="Off" d="M143.413 141.998H51v130.35h93.07v-130.35zm-.669 129.094H52.329V143.255h90.415z"/><path i:knockout="Off" d="M62.859 250.09c-.012.132-.021.268-.032.396-.068 1.253-.5 2.217-1.986 2.217-2.196 0-2.333-1.339-2.333-3.172v-.977c.053-1.762.199-3.051 2.333-3.051 1.186.012 1.855.602 1.947 1.773.021.167.04.354.027.522h-1.311c-.057-.436-.012-1.262-.664-1.262-1.053 0-.965 1.204-.965 1.742v1.896c0 .568.05 1.487.965 1.487.726 0 .648-1.128.672-1.57h1.347zM63.861 248.555c.056-1.762.199-3.051 2.333-3.051 2.134 0 2.274 1.289 2.33 3.051v.977c0 1.833-.142 3.172-2.33 3.172-2.19 0-2.333-1.339-2.333-3.172zm1.368 1.618c0 .568.047 1.487.966 1.487.949 0 .958-.937.958-1.6v-1.752c0-.551.032-1.773-.958-1.773-1.047 0-.966 1.204-.966 1.742zM72.938 245.671h1.34v6.865h-1.396l-1.046-2.446c-.346-.814-.633-1.646-.948-2.729h-.019c.05.575.104 1.263.146 1.972.039.679.066 1.359.066 1.91v1.293h-1.333v-6.865h1.382l1.034 2.503c.339.791.633 1.606.957 2.723h.016c-.047-.617-.096-1.293-.134-1.947a37.178 37.178 0 0 1-.065-1.934zM79.533 246.681h-1.55v5.855h-1.34v-5.855h-1.558v-1.01h4.448zM84.053 245.671v1.01h-2.422v1.728h2.235v1.009h-2.235v2.112h2.422v1.006h-3.76v-6.865zM88.293 245.671h1.333v6.865h-1.395l-1.035-2.446c-.351-.814-.639-1.646-.953-2.729h-.019c.05.575.104 1.263.146 1.972.041.679.065 1.359.065 1.91v1.293H85.1v-6.865h1.38l1.04 2.503c.345.791.627 1.606.957 2.723h.016a82.12 82.12 0 0 1-.131-1.947 34.22 34.22 0 0 1-.069-1.934zM94.888 246.681h-1.557v5.855h-1.332v-5.855H90.44v-1.01h4.448zM99.39 249.575v2.961h-1.34v-6.865h2.526c1.156 0 2.024.38 2.024 1.643 0 .755-.193 1.535-1.085 1.657v.024c.791.101 1.026.579 1.026 1.251 0 .273-.037 1.955.288 2.162v.128h-1.475c-.158-.438-.127-1.286-.14-1.736-.006-.424 0-.995-.458-1.129-.365-.104-.748-.097-1.131-.097h-.235zm0-1.004h1.047c.439-.024.778-.293.778-.992 0-.767-.336-.895-.835-.897h-.99zM103.33 252.536l1.711-6.865h1.793l1.62 6.865h-1.423l-.352-1.736h-1.563l-.356 1.736zm1.991-2.743h1.142l-.357-1.954c-.065-.318-.089-.626-.134-.949a5.15 5.15 0 0 0-.05-.462h-.012c-.029.144-.035.299-.047.462-.05.323-.081.631-.14.949zM113.159 246.681h-1.552v5.855h-1.339v-5.855h-1.558v-1.01h4.449zM117.679 245.671v1.01h-2.415v1.728h2.22v1.009h-2.22v2.112h2.415v1.006h-3.754v-6.865zM118.768 252.536v-6.865h2.777c.326 0 .977.131 1.384.77.301.48.383 1.244.383 2.376 0 1.356 0 2.923-1.089 3.546-.295.156-.657.174-.992.174h-2.463zm1.91-1.006c1.193 0 1.271-.608 1.271-2.586 0-1.63-.177-2.263-.973-2.263h-.879v4.849zM126.905 252.536v-6.865h2.151c.575 0 1.144.03 1.515.501.304.375.356.768.356 1.229 0 .6-.14 1.186-.854 1.441v.019c.742.104 1.034.706 1.034 1.601 0 .279-.018.563-.097.837-.286.872-.803 1.237-1.746 1.237zm1.615-1.006c.28 0 .563.024.81-.07.359-.16.398-.611.398-.951 0-.739-.148-1.06-.97-1.06h-.517v2.081zm-.037-3.085c.326 0 .739.019.956-.246.122-.173.14-.404.14-.742 0-.505-.113-.761-.728-.775h-.611v1.764h.243zM133.911 247.469c.14.344.255.696.31 1.056h.021c.101-.536.28-.917.441-1.293l.629-1.561h1.463l-1.889 3.944v2.921h-1.329v-2.921l-1.855-3.944h1.454zM73.149 254.562v2.376H64.53v1.448h7.295v2.367H64.53v1.59h8.955v2.367H58.743v-10.148zM87.971 257.516c-.089-.344-.414-.565-.835-.69-.411-.128-.925-.188-1.495-.188-1.27 0-1.844.219-1.844.587 0 1.515 10.16.574 10.16 4.259 0 2.351-3.413 3.495-8.266 3.495-4.663 0-7.704-1.561-7.825-3.393h5.542c.122.366.467.634.962.801.461.17 1.067.259 1.641.259 1.448 0 2.408-.271 2.408-.749 0-1.536-10.165-.483-10.165-4.353 0-2.16 3.243-3.242 7.659-3.242 4.904 0 7.137 1.441 7.558 3.215h-5.5zM104.519 261.178v3.532h-5.791v-10.148h8.338c5.886 0 7.827.926 7.827 2.896 0 1.171-.907 2.147-2.963 2.482 1.862.395 2.993.641 2.993 2.686 0 1.323-.082 1.776.608 1.776v.308h-5.867c-.146-.226-.29-.877-.29-1.773 0-1.33-.396-1.759-3.093-1.759zm0-2.224h2.274c1.797 0 2.75-.265 2.75-.964 0-.712-.972-1.053-2.33-1.053h-2.693v2.017zM120.544 264.71v-10.148h8.438c3.979 0 7.143.545 7.143 2.559 0 1.043-1.181 1.804-2.309 2.202 1.913.283 2.941 1.234 2.941 2.327 0 2.27-3.011 3.061-7.607 3.061h-8.606zm5.786-4.237v1.87h2.524c1.43 0 2.503-.173 2.503-.931 0-.886-1.341-.939-3.19-.939zm0-3.535v1.691h2.409c1.15 0 1.99-.302 1.99-.888 0-.791-1.138-.804-2.357-.804h-2.042z" fill="#fff"/><path i:knockout="Off" d="M61.192 172.584c0-2.238 1.984-4.058 4.467-4.058 2.458 0 4.434 1.819 4.434 4.058 0 2.257-1.976 4.075-4.434 4.075-2.483.001-4.467-1.818-4.467-4.075m8.117 0c0-1.841-1.626-3.34-3.65-3.34-2.033 0-3.681 1.499-3.681 3.34 0 1.853 1.647 3.364 3.681 3.364 2.024.001 3.65-1.511 3.65-3.364m-4.6.281v2.059h-.82v-4.797h1.698c.962 0 1.938.244 1.938 1.326 0 .548-.352.991-1.049 1.126v.019c.71.127.803.429.884.945.079.447.13.946.309 1.381h-1.044c-.059-.27-.142-.58-.174-.86-.052-.407-.052-.797-.292-1.017-.205-.182-.479-.163-.763-.182h-.687m.869-.752c.761-.024.947-.331.947-.685 0-.353-.187-.547-.838-.547h-.978v1.231h.869z"/><path i:knockout="Off" fill="#fff" d="M132.931 152.743h1.959v3.378h2.993v1.902h-2.993v3.361h-1.959v-3.361h-3.012v-1.902h3.012zM129.274 151.721l-2.701 9.663h-2.5l3.042-10.09H123.3v-1.845h5.974zM116.924 151.294c.791-.483 1.582-1.052 2.151-1.846h2.132v11.936h-2.409v-9.192c-.565.521-1.217.961-1.874 1.338zM111.23 155.872v-1.897h-3.566v-3.042h3.869v-1.905h-6.268v12.356h6.402v-1.898h-4.003v-3.614zM101.767 155.33v-.039c1.565-.265 2.131-1.448 2.131-3.027 0-2.104-1.053-3.236-2.688-3.236h-4.449v12.356h2.408v-5.12h.614c1.857 0 1.729 1.263 1.729 2.717 0 .818-.059 1.649.254 2.403h2.35c-.219-.517-.268-2.848-.268-3.629.001-2.233-1.556-2.357-2.081-2.425m-1.538-.966h-1.06v-3.431h1.06c.767 0 1.234.435 1.234 1.611 0 .797-.277 1.82-1.234 1.82M92.856 157.621c0 1.359-.475 2.107-1.527 2.107-.881 0-1.48-.58-1.48-2.107v-8.594h-2.408v8.773c0 2.314 1.278 3.793 3.919 3.793 2.931 0 3.894-1.949 3.894-3.793v-8.773h-2.398zM81.697 161.384h2.398v-10.297h2.676v-2.059h-7.75v2.059h2.676zM73.867 149.028l-3.18 12.356h2.368l.651-2.737h3.276l.633 2.737h2.539l-3.121-12.356zm.312 7.709l1.096-5.317h.04l1.155 5.317zM62.515 149.028h-3.869v12.356h2.342v-9.517h.032l2.105 9.517h2.286l2.22-9.517h.029v9.517h2.333v-12.356h-3.738l-1.909 8.396h-.032z"/><path i:knockout="Off" d="M99.495 208.692l.121-.04-4.168-34.616 24.169-6.428 15.096 55.988-14.728 3.912-10.795-40.031-.121.043 4.577 41.67-15.943 4.25-17.01-38.364-.116.03 10.775 40.031-14.727 3.906-15.097-55.985 24.173-6.439z"/></g><g><path i:knockout="Off" fill="#fff" d="M156.669 271.433h91.108V142.92H156.669z"/><path i:knockout="Off" d="M159.051 145.335h86.36v123.736h-86.36z"/><path i:knockout="Off" fill="#fff" d="M163.611 165.715h77.18v76.756h-77.18z"/><path i:knockout="Off" d="M248.1 141.995h-92.413v130.353h93.07V141.995zm-.668 129.097h-90.416V143.255h90.416z"/><path i:knockout="Off" d="M167.546 250.09c-.012.132-.021.268-.032.396-.068 1.253-.5 2.217-1.986 2.217-2.196 0-2.333-1.339-2.333-3.172v-.979c.053-1.759.199-3.048 2.333-3.048 1.186.012 1.855.604 1.947 1.776.021.164.04.352.027.52h-1.311c-.057-.438-.012-1.265-.664-1.265-1.053 0-.965 1.204-.965 1.742v1.896c0 .568.05 1.487.965 1.487.726 0 .648-1.128.672-1.57zM168.548 248.552c.056-1.759.199-3.048 2.333-3.048 2.134 0 2.274 1.289 2.33 3.048v.979c0 1.833-.142 3.172-2.33 3.172-2.19 0-2.333-1.339-2.333-3.172zm1.368 1.621c0 .568.047 1.487.966 1.487.949 0 .958-.937.958-1.6v-1.752c0-.551.032-1.773-.958-1.773-1.047 0-.966 1.204-.966 1.742zM177.625 245.671h1.34v6.865h-1.396l-1.046-2.446c-.346-.814-.633-1.642-.948-2.729h-.019a73.6 73.6 0 0 1 .146 1.968c.039.683.066 1.363.066 1.914v1.293h-1.333v-6.865h1.382l1.035 2.503c.339.791.632 1.606.956 2.723h.016c-.047-.617-.096-1.293-.134-1.95a36.953 36.953 0 0 1-.065-1.928zM184.22 246.681h-1.55v5.855h-1.34v-5.855h-1.558v-1.01h4.448zM188.74 245.671v1.01h-2.422v1.728h2.235v1.009h-2.235v2.112h2.422v1.006h-3.76v-6.865zM192.98 245.671h1.332v6.865h-1.395l-1.035-2.446c-.351-.814-.639-1.642-.953-2.729h-.018a73.6 73.6 0 0 1 .146 1.968c.041.683.065 1.363.065 1.914v1.293h-1.336v-6.865h1.381l1.04 2.503c.345.791.626 1.606.956 2.723h.016a76.457 76.457 0 0 1-.131-1.95 33.99 33.99 0 0 1-.068-1.928zM199.574 246.681h-1.556v5.855h-1.332v-5.855h-1.558v-1.01h4.446zM204.076 249.575v2.961h-1.34v-6.865h2.527c1.155 0 2.023.38 2.023 1.643 0 .755-.193 1.535-1.086 1.657v.024c.791.101 1.027.579 1.027 1.248 0 .279-.037 1.961.287 2.165v.128h-1.475c-.157-.438-.127-1.286-.139-1.736-.007-.424 0-.995-.458-1.129-.365-.104-.749-.097-1.132-.097h-.234zm0-1.001h1.047c.439-.027.779-.296.779-.995 0-.767-.336-.895-.836-.897h-.99zM208.018 252.536l1.711-6.865h1.793l1.62 6.865h-1.423l-.352-1.736h-1.564l-.356 1.736zm1.99-2.743h1.143l-.357-1.954c-.064-.321-.09-.626-.134-.949a5.543 5.543 0 0 0-.05-.462h-.012c-.029.144-.035.299-.048.462-.05.323-.081.628-.14.949zM217.846 246.681h-1.551v5.855h-1.34v-5.855h-1.559v-1.01h4.45zM222.365 245.671v1.01h-2.414v1.728h2.221v1.009h-2.221v2.112h2.414v1.006h-3.753v-6.865zM223.455 252.536v-6.865h2.777c.325 0 .977.131 1.384.77.302.48.384 1.244.384 2.373 0 1.359 0 2.926-1.09 3.549-.295.156-.656.174-.991.174h-2.464zm1.91-1.006c1.192 0 1.271-.608 1.271-2.589 0-1.627-.176-2.26-.973-2.26h-.88v4.849zM231.592 252.536v-6.865h2.15c.575 0 1.145.027 1.516.501.304.375.355.768.355 1.232 0 .597-.14 1.183-.854 1.438v.019c.742.104 1.034.706 1.034 1.601 0 .279-.019.56-.098.84-.286.869-.803 1.234-1.746 1.234zm1.615-1.006c.28 0 .563.024.81-.07.358-.157.397-.611.397-.955 0-.735-.148-1.056-.97-1.056h-.517v2.081zm-.037-3.081c.326 0 .74.015.956-.25.122-.173.14-.401.14-.742 0-.505-.113-.761-.727-.775h-.611v1.768h.242zM238.598 247.469c.14.344.256.693.311 1.056h.021c.101-.536.28-.917.441-1.293l.63-1.561h1.463l-1.889 3.944v2.921h-1.33v-2.921l-1.855-3.944h1.455zM177.836 254.562v2.376h-8.619v1.448h7.295v2.367h-7.295v1.59h8.955v2.367H163.43v-10.148zM192.658 257.513c-.09-.341-.414-.563-.836-.688-.41-.128-.924-.188-1.494-.188-1.271 0-1.844.219-1.844.587 0 1.515 10.16.574 10.16 4.259 0 2.351-3.414 3.495-8.267 3.495-4.663 0-7.704-1.561-7.825-3.393h5.543c.121.366.467.634.962.801.461.17 1.067.259 1.642.259 1.447 0 2.407-.271 2.407-.749 0-1.536-10.165-.483-10.165-4.353 0-2.16 3.243-3.242 7.66-3.242 4.903 0 7.137 1.441 7.558 3.212zM209.205 261.178v3.532h-5.79v-10.148h8.338c5.886 0 7.827.926 7.827 2.896 0 1.171-.906 2.15-2.963 2.482 1.861.395 2.992.641 2.992 2.686 0 1.323-.082 1.776.609 1.776v.308h-5.867c-.146-.226-.289-.877-.289-1.773 0-1.33-.396-1.759-3.094-1.759zm0-2.22h2.274c1.798 0 2.75-.269 2.75-.968 0-.712-.973-1.053-2.331-1.053h-2.693zM225.231 264.71v-10.148h8.438c3.979 0 7.143.545 7.143 2.556 0 1.046-1.182 1.807-2.31 2.205 1.913.286 2.942 1.234 2.942 2.327 0 2.27-3.012 3.061-7.608 3.061h-8.605zm5.787-4.237v1.87h2.523c1.431 0 2.504-.173 2.504-.931 0-.886-1.342-.939-3.19-.939zm0-3.535v1.691h2.408c1.15 0 1.99-.302 1.99-.888 0-.791-1.139-.804-2.357-.804h-2.041z" fill="#fff"/><path i:knockout="Off" d="M165.879 172.584c0-2.238 1.984-4.058 4.467-4.058 2.458 0 4.434 1.819 4.434 4.058 0 2.257-1.976 4.075-4.434 4.075-2.483.001-4.467-1.818-4.467-4.075m8.117 0c0-1.841-1.626-3.34-3.65-3.34-2.033 0-3.681 1.499-3.681 3.34 0 1.853 1.647 3.364 3.681 3.364 2.024.001 3.65-1.511 3.65-3.364m-4.599.281v2.059h-.82v-4.797h1.698c.962 0 1.938.244 1.938 1.326 0 .551-.352.991-1.049 1.126v.019c.71.127.803.425.883.942.08.45.131.949.309 1.384h-1.043c-.059-.27-.143-.58-.175-.86-.052-.407-.052-.797-.292-1.017-.206-.182-.479-.163-.764-.182h-.685m.868-.755c.761-.021.947-.328.947-.682 0-.355-.187-.547-.838-.547h-.978v1.229z"/><path i:knockout="Off" d="M234.323 155.537v-.03c.923-.24 1.184-.83 1.184-2.317v-1.15c0-1.762-.532-2.664-2.275-2.664-1.739 0-2.269.902-2.269 2.664v1.15c0 1.487.252 2.077 1.174 2.317v.03c-.922.283-1.271.63-1.271 2.41v1.036c0 2.245.477 3.072 2.366 3.072 1.892 0 2.364-.827 2.364-3.072v-1.036c0-1.78-.35-2.126-1.273-2.41m-1.864-3.416c0-.708 0-1.39.772-1.39.778 0 .778.682.778 1.39v1.561c0 .555 0 1.156-.778 1.156-.772 0-.772-.602-.772-1.697zm1.648 7.127c0 .779 0 1.561-.876 1.561-.873 0-.873-.781-.873-1.561v-1.517c0-.776 0-1.549.873-1.549.876 0 .876.772.876 1.549zM226.126 151.501v1.615c.593-.493.9-.797 1.235-1.284h.033v10.115h1.487v-12.469h-1.333c-.206.554-1.067 1.728-1.422 2.023M219.166 149.479h-1.582l2.187 7.354v5.115h1.584v-5.115l2.209-7.354h-1.398l-1.583 5.26h-.039zM214.693 161.948h4.25v-1.453h-2.669v-11.016h-1.581zM210.118 149.479h-2.196v12.469h1.405v-10.639h.032l1.871 10.639h2.284v-12.469h-1.486v10.366h-.038zM204.103 149.375c-2.161 0-2.679 1.542-2.679 3.288v6.297c0 1.938.651 3.096 2.679 3.096 2.171 0 2.7-1.542 2.7-3.282v-6.302c0-1.941-.652-3.097-2.7-3.097m1.106 9.691c0 1.068-.439 1.644-1.106 1.644-.651 0-1.091-.575-1.091-1.644v-6.546c0-1.223.378-1.788 1.091-1.788.729 0 1.106.565 1.106 1.788zM194.057 152.091c0-.958.299-1.359.957-1.359.613 0 .887.414.887 1.113v.988h1.488v-1.171c0-.889-.187-1.323-.46-1.598-.378-.383-1.003-.689-1.857-.689-1.731 0-2.604.879-2.604 2.926 0 1.688.842 2.689 1.857 3.79 1.654 1.783 1.697 2.133 1.697 3.182 0 .813-.202 1.437-1.046 1.437-.633 0-.919-.518-.919-1.351v-1.02h-1.59v1.481c0 1.561 1.004 2.235 2.465 2.235 1.887 0 2.586-1.128 2.586-3.072 0-1.505-.283-2.107-1.841-3.878-1.462-1.656-1.62-2.165-1.62-3.014M188.471 161.948h1.584v-11.019h1.908v-1.45h-5.395v1.45h1.903zM183.642 161.948h4.251v-1.453h-2.663v-11.016h-1.588zM180.928 159.419c0 .857-.288 1.29-1.096 1.29-.826 0-1.112-.433-1.112-1.29v-9.94h-1.589v9.66c0 1.442.53 2.917 2.701 2.917 2.161 0 2.678-1.475 2.678-2.917v-9.66h-1.582zM173.275 149.479h-2.551v12.469h2.303c2.503 0 3.026-1.001 3.026-4.192v-3.718c.001-3.617-.204-4.559-2.778-4.559m1.194 8.204c0 2.138-.219 2.813-1.396 2.813h-.762v-9.566h.637c1.349 0 1.521.62 1.521 2.477zM165.786 149.479l-2.521 12.469h1.585l.526-3.174h2.473l.521 3.174h1.592l-2.333-12.469zm-.175 7.848l1.005-6.018h.032l.981 6.018zM238.631 152.183v2.606h-2.388v1.032h2.388v2.607h.958v-2.607h2.391v-1.032h-2.391v-2.606z" fill="#fff"/><path i:knockout="Off" d="M225.411 204.791c-.94.457-1.993.846-3.173 1.138-8.209 2.008-14.024-2.385-16.289-10.081-1.66-5.657-.67-10.634 3.225-13.683l-9.461-13.158-20.683 5.056-4.167 67.012 19.917-4.867-.065-8.693 20.265-4.964 4.796 7.537 20.253-4.951-14.618-20.346m-30.581 8.944l-.178-23.605 13.025 20.466z"/><path i:knockout="Off" d="M210.921 194.637c1.552 5.275 4.696 9.267 10.319 7.892a8.917 8.917 0 0 0 2.014-.761l-11.714-16.292c-1.751 2.245-1.659 5.608-.619 9.161"/><path i:knockout="Off" d="M215.526 183.091c5.623-1.375 8.765 2.615 10.308 7.896 1.342 4.557 1.119 8.814-2.583 10.78l2.163 3.023c5.67-2.762 7.328-8.433 5.393-15.032-2.26-7.678-8.072-12.083-16.284-10.069-2.173.529-3.942 1.382-5.348 2.476l2.366 3.311c.858-1.102 2.148-1.94 3.985-2.385"/></g></g><g><path i:knockout="Off" fill="#fff" d="M210.355 129.433h91.109V.923h-91.109z"/><path i:knockout="Off" d="M212.737 3.339h86.359v123.733h-86.359z"/><path i:knockout="Off" fill="#fff" d="M217.297 23.719h77.18v76.752h-77.18z"/><path i:knockout="Off" d="M301.786-.002h-92.413v130.35h93.07V-.002zm-.67 129.097h-90.414V1.258h90.414z"/><path i:knockout="Off" d="M220.843 108.094c-.013.131-.021.268-.032.396-.068 1.25-.5 2.218-1.986 2.218-2.196 0-2.333-1.341-2.333-3.176v-.976c.053-1.761.199-3.051 2.333-3.051 1.186.012 1.855.605 1.947 1.776.021.165.04.356.027.523h-1.311c-.056-.438-.012-1.269-.663-1.269-1.053 0-.969 1.208-.969 1.746v1.892c0 .572.053 1.491.969 1.491.725 0 .648-1.129.672-1.57zM221.845 106.555c.056-1.761.199-3.051 2.333-3.051 2.134 0 2.274 1.29 2.331 3.051v.976c0 1.834-.14 3.176-2.331 3.176-2.189 0-2.333-1.341-2.333-3.176zm1.367 1.618c0 .572.046 1.491.965 1.491.951 0 .96-.94.96-1.604v-1.749c0-.551.03-1.776-.96-1.776-1.046 0-.965 1.208-.965 1.746zM230.922 103.674h1.34v6.862h-1.396l-1.047-2.443c-.346-.818-.632-1.646-.948-2.729h-.019c.05.575.104 1.26.146 1.968.038.682.065 1.359.065 1.914v1.29h-1.333v-6.862h1.383l1.034 2.503c.34.791.634 1.603.957 2.723h.016c-.047-.621-.096-1.293-.135-1.95a36.97 36.97 0 0 1-.064-1.932v-1.344zM237.517 104.681h-1.55v5.855h-1.341v-5.855h-1.557v-1.007h4.448zM242.037 103.674v1.007h-2.423v1.731h2.233v1.007h-2.233v2.114h2.423v1.003h-3.761v-6.862zM246.277 103.674h1.331v6.862h-1.394l-1.034-2.443c-.352-.818-.639-1.646-.954-2.729h-.019c.051.575.104 1.26.146 1.968.044.682.065 1.359.065 1.914v1.29h-1.335v-6.862h1.379l1.041 2.503c.344.791.626 1.603.956 2.723h.016a77.633 77.633 0 0 1-.132-1.95 34.964 34.964 0 0 1-.067-1.932v-1.344zM252.871 104.681h-1.558v5.855h-1.331v-5.855h-1.557v-1.007h4.446zM257.373 107.577v2.959h-1.339v-6.862h2.525c1.156 0 2.024.377 2.024 1.64 0 .754-.193 1.536-1.085 1.661v.021c.79.103 1.025.581 1.025 1.25 0 .277-.035 1.959.284 2.163v.127h-1.471c-.157-.438-.127-1.284-.139-1.737-.007-.42 0-.995-.458-1.128-.365-.101-.748-.095-1.132-.095h-.234zm0-1.004h1.047c.439-.024.779-.292.779-.995 0-.766-.334-.894-.836-.897h-.99zM261.314 110.536l1.711-6.862h1.793l1.62 6.862h-1.424l-.354-1.737h-1.56l-.356 1.737zm1.991-2.743h1.143l-.357-1.953c-.068-.319-.09-.626-.134-.946a4.874 4.874 0 0 0-.05-.465h-.013c-.028.146-.035.301-.047.465-.051.319-.081.626-.14.946zM271.143 104.681h-1.552v5.855h-1.34v-5.855h-1.557v-1.007h4.449zM275.663 103.674v1.007h-2.416v1.731h2.221v1.007h-2.221v2.114h2.416v1.003h-3.754v-6.862zM276.751 110.536v-6.862h2.777c.326 0 .977.131 1.385.767.301.48.383 1.244.383 2.375 0 1.357 0 2.923-1.089 3.547-.295.155-.657.173-.992.173zm1.911-1.003c1.192 0 1.268-.608 1.268-2.589 0-1.63-.173-2.263-.97-2.263h-.879v4.852zM284.893 110.536v-6.862h2.146c.578 0 1.144.027 1.516.499.304.374.358.767.358 1.232 0 .599-.143 1.183-.857 1.441v.015c.742.106 1.034.709 1.034 1.6 0 .283-.019.563-.098.839-.286.873-.804 1.235-1.746 1.235h-2.353zm1.611-1.003c.28 0 .563.024.807-.074.361-.158.4-.611.4-.952 0-.739-.148-1.056-.97-1.056h-.518v2.081h.281zm-.037-3.085c.326 0 .739.015.955-.25.122-.17.141-.401.141-.742 0-.505-.113-.76-.724-.775h-.615v1.767zM291.894 105.469c.141.344.256.697.311 1.059h.021c.101-.539.28-.916.44-1.293l.631-1.56h1.463l-1.887 3.945v2.916h-1.332v-2.917l-1.855-3.945h1.454zM231.133 112.562v2.376h-8.619v1.451h7.295v2.367h-7.295v1.591h8.955v2.363h-14.742v-10.148zM245.954 115.516c-.091-.344-.414-.566-.835-.69-.41-.125-.922-.188-1.495-.188-1.271 0-1.843.222-1.843.59 0 1.512 10.159.575 10.159 4.256 0 2.351-3.412 3.495-8.266 3.495-4.66 0-7.704-1.561-7.825-3.392h5.542c.12.368.47.632.961.799.462.174 1.072.259 1.644.259 1.447 0 2.41-.271 2.41-.745 0-1.536-10.167-.484-10.167-4.356 0-2.16 3.242-3.243 7.658-3.243 4.904 0 7.138 1.442 7.559 3.215zM262.503 119.179v3.532h-5.791v-10.148h8.338c5.886 0 7.827.925 7.827 2.896 0 1.171-.907 2.15-2.965 2.485 1.859.396 2.995.639 2.995 2.683 0 1.323-.083 1.779.607 1.779v.305h-5.867c-.146-.222-.289-.873-.289-1.771 0-1.333-.395-1.761-3.094-1.761zm0-2.221h2.272c1.798 0 2.75-.265 2.75-.964 0-.712-.97-1.056-2.328-1.056h-2.694zM278.528 122.71v-10.148h8.438c3.979 0 7.143.544 7.143 2.558 0 1.046-1.181 1.807-2.309 2.206 1.913.283 2.941 1.232 2.941 2.327 0 2.267-3.012 3.058-7.607 3.058h-8.606zm5.785-4.234v1.871h2.525c1.43 0 2.503-.173 2.503-.931 0-.888-1.342-.939-3.19-.939h-1.838zm0-3.538v1.692h2.406c1.153 0 1.992-.302 1.992-.885 0-.794-1.137-.807-2.356-.807zM220.465 9.462h-3.152v3.982h2.968v1.487h-2.968v4.304h3.152v1.478h-4.984V7.974h4.984zM224.455 18.11h.031l1.909-10.136h1.831l-2.693 12.739h-2.122l-2.693-12.739h1.831zM234.567 9.462h-3.153v3.982h2.969v1.487h-2.969v4.304h3.153v1.478h-4.983V7.974h4.983zM235.356 7.974h2.834c2.679 0 2.953.693 2.953 3.483 0 1.712-.24 2.452-1.741 2.893v.037c1.245.122 1.667.736 1.667 1.935v2.774c0 .457 0 1.092.107 1.622h-1.722c-.181-.316-.217-.636-.217-1.146v-2.881c0-1.196-.219-1.512-1.43-1.512h-.627v5.539h-1.825V7.974zm1.826 5.719h.479c1.449 0 1.652-.262 1.652-2.166 0-1.892-.113-2.068-1.251-2.068h-.881v4.234zM244.794 13.34h.039l1.825-5.366h1.614l-2.547 7.52v5.219h-1.826v-5.219l-2.526-7.52h1.831zM248.771 11.223c0-1.776.601-3.346 3.089-3.346 2.368 0 3.121 1.18 3.121 3.151v6.442c0 1.777-.607 3.352-3.121 3.352-2.336 0-3.089-1.183-3.089-3.157zm1.832 6.546c0 1.098.511 1.68 1.258 1.68.772 0 1.289-.582 1.289-1.68V11.08c0-1.25-.442-1.832-1.289-1.832-.818 0-1.258.582-1.258 1.832zM260.963 18.563h.044V7.974h1.713v12.739h-2.633l-2.161-10.864h-.033v10.864h-1.615V7.974h2.527zM269.067 9.462h-3.158v3.982h2.969v1.487h-2.969v4.304h3.158v1.478h-4.99V7.974h4.99zM275.912 10.377h-.039c-.391.493-.733.813-1.43 1.32v-1.651c.423-.301 1.405-1.506 1.651-2.071h1.539v12.742h-1.722v-10.34zM280.283 11.01c0-2.288.557-3.136 2.731-3.136 2.178 0 2.731.848 2.731 3.136v6.671c0 2.29-.554 3.142-2.731 3.142-2.175 0-2.731-.852-2.731-3.142zm1.725 6.957c0 .791 0 1.585 1.007 1.585 1.01 0 1.01-.794 1.01-1.585v-7.236c0-.794 0-1.588-1.01-1.588-1.007 0-1.007.794-1.007 1.588zM287.101 15.512h3.868v-3.723h1.53v3.723h3.863v1.481h-3.863v3.72h-1.53v-3.72h-3.868z" fill="#fff"/><path i:knockout="Off" d="M224.29 78.178c2.417-.7 4.838-1.731 6.155-2.948v16.286h4.658v-20.42h-4.536c-1.713 1.448-3.458 2.269-6.277 3.136v3.946m-1.89-39.384l49.54-14.674 4.962 15.562-24.808 7.349 2.031 6.376 22.922-6.792 4.961 15.568-22.911 6.787 2.141 6.71 25.626-7.599 4.967 15.556-50.349 14.926L222.4 38.794m34.279 42.985c0-6.762-3.65-10.771-9.708-10.771-8.183 0-10.201 5.545-10.201 10.771 0 6.37 3.217 10.768 9.958 10.768 6.728 0 9.951-4.398 9.951-10.768m5.61.852h-3.517v1.934h3.517v3.383h2.003v-3.383h3.52v-1.934h-3.52v-3.392h-2.003z"/><path i:knockout="Off" d="M241.045 81.584c.037-6.826 2.763-8.414 5.883-8.401 3.498.019 5.486 2.616 5.459 8.597-.021 3.732-1.028 8.307-5.514 8.279-4.38-.013-5.853-3.492-5.828-8.475M222.854 26.088h-1.338v3.86h-.556v-3.86h-1.349v-.404h3.243zm2.977 2.75h.019l1.197-3.154h1.002v4.265h-.557v-3.817h-.021L226 29.949h-.34l-1.47-3.817h-.02v3.817h-.557v-4.265h1z"/></g></g></svg>